<?xml version="1.0" encoding="utf-8"?><svg version="1.1" xmlns="http://www.w3.org/2000/svg" xmlns:xlink="http://www.w3.org/1999/xlink" x="0px" y="0px" viewBox="-29 -170 900 900" style="enable-background:new -29 -170 900 900;" xml:space="preserve"><path class="st0" style="fill:#305095" d="M733.2-112.2H108.8c-44,0-80,36-80,80v624.4c0,44,36,80,80,80h624.4c44,0,80-36,80-80V-32.2 C813.2-76.2,777.2-112.2,733.2-112.2z"/><path class="st1" style="fill:#FFF" d="M659.6,344.3l12.6-97.5h-96.5v-62.3c0-28.2,7.9-47.5,48.3-47.5h51.6V49.8c-8.9-1.2-39.5-3.8-75.2-3.8 C526,46,475,91.4,475,174.9v71.9h-84.2v97.5H475v250.1h100.7V344.3H659.6z M733.2,679.7H108.8c-48.2,0-87.5-39.3-87.5-87.5V-32.2 c0-48.2,39.3-87.5,87.5-87.5h624.4c48.2,0,87.5,39.3,87.5,87.5v624.4C820.7,640.4,781.4,679.7,733.2,679.7z M108.8-104.7 c-40,0-72.5,32.5-72.5,72.5v624.4c0,40,32.5,72.5,72.5,72.5h624.4c40,0,72.5-32.5,72.5-72.5V-32.2c0-40-32.5-72.5-72.5-72.5H108.8z"/></svg>