<?xml version="1.0" encoding="UTF-8"?>
<svg id="_レイヤー_1" data-name="レイヤー_1" xmlns="http://www.w3.org/2000/svg" version="1.1" viewBox="0 0 900 900">
  <!-- Generator: Adobe Illustrator 29.6.1, SVG Export Plug-In . SVG Version: 2.1.1 Build 9)  -->
  <defs>
    <style>
      .st0 {
        fill: #0866ff;
      }

      .st1 {
        fill: #fff;
      }
    </style>
  </defs>
  <g id="Logo">
    <path id="Initiator" class="st0" d="M834.6,450c0-211.5-171.4-382.9-382.9-382.9S68.7,238.5,68.7,450s123.6,330.3,290.4,371.6v-254.6h-79v-117h79v-50.4c0-130.3,59-190.7,186.9-190.7s66.1,4.8,83.2,9.5v106.1c-9-1-24.7-1.4-44.2-1.4-62.8,0-87,23.8-87,85.6v41.4h125.1l-21.5,117h-103.6v263.1c189.6-22.9,336.5-184.3,336.5-380.1Z"/>
    <path id="F" class="st1" d="M601.6,567l21.5-117h-125.1v-41.4c0-61.8,24.3-85.6,87-85.6s35.2.5,44.2,1.4v-106.1c-17.1-4.8-59-9.5-83.2-9.5-128,0-186.9,60.4-186.9,190.7v50.4h-79v117h79v254.6c29.6,7.4,60.6,11.3,92.5,11.3s31.2-1,46.4-2.8v-263.1h103.6Z"/>
  </g>
</svg>