<svg xmlns="http://www.w3.org/2000/svg" viewBox="0 0 1200 630"><defs><style>.cls-1{fill-rule:evenodd}.cls-1,.cls-2{fill:#fff}</style></defs><path d="M400.73 373.72v-26.691h62.584v-39.32h33.008v38.958h62.406v27.053h-59.699c7.576 33.008 28.853 54.289 62.223 62.223v33.731c-38.958-7.214-65.828-26.334-81.882-58.439-19.843 35.893-43.653 52.846-81.708 58.618V438.11c31.748-7.755 56.996-33.727 62.946-64.389h-59.877zM630.77 311.15c-1.709 11.922-11.761 35.44-20.789 48.727v105.8h-27.938v-75.3c-5.968 7.149-9.032 9.878-17.554 15.841v-37.82c16.016-11.587 31.861-36.12 36.63-57.249h29.651zm45.148 0q-2.049 6.643-6.988 20.274h52.305v25.218h-55.54v13.117h52.641v25.558h-52.64v15.331h52.64v25.218h-52.64v30.492h-29.473v-85.697c-6.992 7.838-10.737 11.417-20.109 18.744v-37.999c10.732-7.319 24.36-31.002 28.962-50.257h30.841zM882.92 342.32c-4.255-13.291-5.113-15.846-8.008-23.854h-22.659c3.745 9.032 5.284 13.461 8.178 23.854h22.489zM757.86 334.66l-5.96-23.17h-24.71l4.94 23.17z" class="cls-2"/><path d="M849.18 337.56c0-1.705 0-8.862-.166-17.21l-.174-8.348h-25.898v37.14h-5.284v-8.857h-13.282c5.964-9.368 8.518-13.801 15.667-28.282h-27.938c-3.068 6.303-3.574 7.328-6.299 12.437l-4.603-12.947h-24.028l6.822 23.169h16.186l-3.923 5.623h-46.168v70.705h29.472v8.178h-33.056v24.194h33.056v21.979h25.902v-21.98h27.428v20.79c15.671-4.43 23.34-8.012 36.46-16.87 9.198 8.687 20.104 14.996 33.561 19.42v-31.342c-9.368-2.9-12.772-4.944-16.696-9.547 7.838-10.902 13.121-25.893 16.696-46.682h-25.383c-1.369 11.591-1.709 12.951-4.603 20.28-2.555-9.547-2.729-11.418-3.575-26.583l33.561-.85v-24.533l-33.56.85-.175-10.732zm-93.152 59.552c-5.405 0-9.795-4.385-9.795-9.795 0-5.405 4.39-9.79 9.795-9.79 5.41 0 9.795 4.385 9.795 9.79 0 5.41-4.385 9.795-9.795 9.795zm0-23.937c-5.405 0-9.795-4.385-9.795-9.795s4.39-9.795 9.795-9.795c5.41 0 9.795 4.385 9.795 9.795s-4.385 9.795-9.795 9.795zm31.055-19.59c5.41 0 9.795 4.385 9.795 9.795s-4.385 9.795-9.795 9.795c-5.405 0-9.79-4.385-9.79-9.795s4.385-9.795 9.79-9.795zm-9.79 33.732c0-5.405 4.385-9.79 9.79-9.79 5.41 0 9.795 4.385 9.795 9.79 0 5.41-4.385 9.795-9.795 9.795-5.405 0-9.79-4.385-9.79-9.795zm41.73 47.361v-15.51h-33.558v-8.178h14.817c12.101-.34 17.375-5.283 17.375-16.356v-20.44l6.308-.349c.68 22.323 3.405 35.78 10.567 51.966-6.308 5.624-8.526 6.988-15.51 8.867z" class="cls-2"/><path d="M916.79 428.09c-11.151-.937-20.976 7.389-21.909 18.54-.915 11.168 7.41 20.994 18.561 21.931 11.173.915 20.994-7.41 21.909-18.583.937-11.151-7.389-20.972-18.561-21.887M935.6 421.21c.758.405 1.67.436 2.463.135a3.149 3.149 0 0 0 1.774-1.77l33.313-88.739a3.076 3.076 0 0 0-1.373-3.766c-14.438-8.082-30.218-13.666-49.42-12.938-1.456.092-2.672 1.173-2.886 2.602l-14.394 94.323c-.13.881.144 1.818.75 2.476a2.996 2.996 0 0 0 2.41 1.03c9.495-.34 18.597 2.196 27.363 6.647" class="cls-1"/><path d="m518.61 166.97-4.03-16.85-62.33 14.89 9.55-58.98h-42.1l-5.22 68-33.76 8.06 4.03 16.85 28.34-6.77-6.09 79.4 27.39 3.8 14.86-91.84z" class="cls-2"/><path d="m513.26 219.88 14.7-38.2-63.87 17.33 4.54 16.72 30.9-8.39-2.43 6.32zM466.36 225.47l-16.696 29.494c24.686 31.586 73.783 23.025 73.783 23.025v-33.112c-33.395 3.997-57.088-19.407-57.088-19.407M531.56 174.48l4.202 11.591c3.75-.85 60.37-11.024 64.851-11.805 2.895-.501 5.872-.636 8.775-.105 5.497 1.003 10.484 4.7 12.472 9.987 1.338 3.566 1.22 7.49.28 11.138-1.435 5.562-4.578 10.593-8.074 15.083-5.584 7.167-12.406 13.335-19.48 18.98-4.46 3.562-9.085 6.922-13.798 10.14l37.497 34.855s76.996-52.576 60.148-90.714c-16.848-38.138-74.938-25.832-146.87-9.15M800.8 249.49c-4.769 4.311-11.8 9.276-18.217 8.487-3.875-.48-7.964-3.26-10.937-7.436-2.153-3.026-3.85-6.731-5.314-11.675 1.247-6.665 1.792-13.247 1.582-19.433-.174-5.226-.54-12.955-1.01-21.927l12.414-.92 2.969-48.673h-18.23a13345.744 13345.744 0 0 0-2.328-37.62l-19.433 1.238c.026.366 1.042 16.395 2.254 36.382h-60.34l7.254 55.178 56.02-4.141c.175 3.374.336 6.564.48 9.494a19.955 19.955 0 0 0-1.552-.471c-5.724-1.521-11.582-.27-16.5 3.51-8.5 6.542-12.946 19.73-12.946 29.367 0 5.802.536 10.915 1.59 15.2 1.514 6.147 5.062 14.071 13.353 16.887 3.073 1.042 7.977 1.648 13.866-1.412 4.002-2.084 7.585-5.397 10.514-9.002 6.146 8.287 14.82 13.653 23.914 14.773 1.277.157 2.559.24 3.845.24 9.79 0 19.799-4.564 29.804-13.596a104.341 104.341 0 0 0 28.518-43.012l-18.391-6.4a84.777 84.777 0 0 1-23.178 34.96m-55.588-5.95c-.244.833-1.508 3.51-3.854 6.447-1.303 1.635-2.44 2.72-3.3 3.405-.745-1.966-1.626-5.876-1.626-12.541 0-2.685.868-6.33 2.202-9.294 1.233-2.742 2.467-4.097 3.095-4.603.492.375 1.059 1.277 1.469 2.1 1.229 2.473 2.079 5.86 2.903 9.395.074.3.144.615.222.933a82.753 82.753 0 0 1-1.111 4.158" class="cls-2"/><path d="m844.03 194.84-10.85-58.38-37.83 11.45 22.56 55.04zM987.84 144.69c-1.007-32.593-7.345-58.596-7.615-59.69l-56.652 13.98c.052.205 5.135 21.456 5.941 47.515.467 15.017-.558 28.574-3.034 40.287-2.75 12.99-7.245 23.444-13.36 31.072-4.565 5.702-10.07 9.9-16.827 12.825-8.37 3.623-18.827 5.323-31.085 5.052l-1.29 58.343c1.26.022 2.515.035 3.762.035 19.233 0 36.647-3.317 51.804-9.886 15.479-6.705 28.66-16.757 39.176-29.878 11.87-14.817 20.248-33.478 24.908-55.475 3.448-16.277 4.882-34.503 4.272-54.18" class="cls-2"/><path d="m878.59 104.54-11.578-1.474-11.578-1.49c-.222 1.748-5.344 43.369 9.032 91.329l22.358-6.705c-12.886-43.003-8.287-81.276-8.234-81.66M366.8 175.02l-.484-12.999-12.868 1.927c-16.552 2.476-34.886 6.299-52.724 10.519l2.494-82.31-67.227 6.046 13.195 89.69c-20.968 5.902-35.754 10.558-37.162 11.003l7.018 22.197c.331-.105 13.849-4.364 33.565-9.948l13.069 88.861 31.434-6.164 2.881-95.235c14.477-3.522 29.407-6.84 43.422-9.39-.532 15.145-2.594 41.343-9.952 68.87l-8.03-3.316-8.888 21.512 31.604 13.06 3.88-11.975c16.499-50.841 14.856-100.27 14.773-102.35M328.674 105.28l25.814-19.076 44.938 60.81-25.814 19.076zM389.07 529.42h-12.132v15.104h-8.152v-35.005h8.152v13.716h12.132v-13.716h8.152v35.005h-8.152V529.42zM403.56 544.52l11.843-35.005h8.629l11.796 35.005h-8.629l-2.065-7.577h-11.077l-2.013 7.577h-8.484zm12.179-13.763h7.765l-3.836-14.193h-.093l-3.836 14.193zM448.44 509.51l7.386 27.189h.094l7.67-27.189h8.442l-11.796 35.005h-8.633L439.76 509.51h8.68zM486.51 516.08v7.147h13.282v6.186H486.51v8.535h14.244v6.569h-22.396v-35.005h22.396v6.568H486.51zM522.9 544.52l11.843-35.005h8.633l11.796 35.005h-8.633l-2.06-7.577h-11.077l-2.014 7.577H522.9zm12.179-13.763h7.769l-3.836-14.193h-.097l-3.836 14.193zM599.76 517.67a21.334 21.334 0 0 0-9.587-2.252c-1.664 0-2.924.32-3.788.958s-1.294 1.503-1.294 2.588c0 1.792 1.34 3.07 4.027 3.836 4.763 1.31 8.11 2.877 10.046 4.7 1.932 1.821 2.899 4.171 2.899 7.049 0 3.389-1.15 5.977-3.453 7.769-2.303 1.788-5.704 2.686-10.213 2.686-2.013 0-4.108-.315-6.283-.936-2.171-.622-3.993-1.43-5.466-2.423l1.92-6.377c3.26 2.24 6.65 3.36 10.166 3.36 1.66 0 2.916-.346 3.763-1.035.847-.686 1.269-1.652 1.269-2.9 0-1.02-.341-1.855-1.03-2.494-.686-.638-1.895-1.213-3.619-1.724-4.38-1.281-7.53-2.84-9.446-4.678-1.92-1.835-2.878-4.113-2.878-6.833 0-3.035 1.14-5.449 3.427-7.24 2.286-1.789 5.491-2.683 9.616-2.683 4.38 0 8.182.766 11.413 2.299l-1.49 6.33zM607.2 544.52l11.843-35.005h8.633l11.796 35.005h-8.633l-2.06-7.577h-11.077l-2.014 7.577H607.2zm12.179-13.763h7.769l-3.836-14.193h-.097l-3.836 14.193zM645.8 509.51h21.915v6.569h-13.763v7.96h12.805v6.139h-12.805v14.338H645.8V509.51zM683.82 516.08v7.147h13.282v6.186H683.82v8.535h14.24v6.569h-22.392v-35.005h22.392v6.568h-14.24zM749.27 509.51v6.764h-9.736v28.241h-8.343v-28.24h-9.732v-6.765h27.811zM764.81 531.57v12.946h-8.007v-34.763c3.516-.481 7.351-.72 11.51-.72 4.794 0 8.366.903 10.716 2.708s3.524 4.372 3.524 7.697c0 2.14-.621 4.07-1.868 5.776-1.248 1.712-2.895 2.933-4.938 3.67v.093c1.66.928 3.018 2.831 4.073 5.709l3.691 9.83h-8.39l-3.308-9.494c-.447-1.345-.992-2.256-1.63-2.733-.639-.48-1.63-.72-2.972-.72h-2.4zm0-5.994h2.686c2.24 0 3.95-.472 5.13-1.417 1.183-.941 1.775-2.26 1.775-3.955 0-3.325-2.188-4.985-6.568-4.985-1.15 0-2.159.094-3.023.285v10.072zM791.04 544.52v-35.005h8.965v35.005h-8.965zM809.45 509.76c3.325-.481 6.841-.72 10.549-.72 10.23 0 15.342 3.802 15.342 11.41 0 4.125-1.188 7.25-3.572 9.378-2.38 2.124-5.874 3.188-10.476 3.188-1.149 0-2.43-.064-3.835-.191v11.698h-8.007V509.76zm8.007 17.019a19.32 19.32 0 0 0 3.023.243c2.299 0 4.082-.537 5.342-1.61 1.265-1.068 1.895-2.562 1.895-4.482 0-3.802-2.414-5.704-7.237-5.704a15.4 15.4 0 0 0-3.023.285v11.268zM263.67 524.99h86.5v3.269h-86.5zM854.07 524.99h86.496v3.269H854.07zM375.11 399.3c0-30.832-26.757-55.61-58.317-52.598-18.099 1.726-33.557 13.169-41.734 29.036a21.992 21.992 0 0 0-10.235-9.651l7.894-19.94c.175.01.35.014.524.014 7.284 0 13.208-5.928 13.208-13.208 0-7.284-5.924-13.213-13.208-13.213-7.29 0-13.213 5.929-13.213 13.213 0 3.954 1.748 7.502 4.511 9.926l-8.391 21.203a21.43 21.43 0 0 0-1.046 0l-8.392-21.203a13.166 13.166 0 0 0 4.508-9.926c0-7.284-5.924-13.213-13.208-13.213s-13.208 5.929-13.208 13.213c0 7.441 6.19 13.492 13.73 13.195l7.895 19.96c-7.59 3.631-12.82 11.787-12.82 20.924v43.095c0 22.009 17.777 39.926 39.634 39.926h97.462a4.409 4.409 0 0 0 4.407-4.407c0-6.713-2.293-13.4-6.456-18.832a31.847 31.847 0 0 0-8.849-7.899c9.416-8.836 15.305-21.356 15.305-35.213V399.3zm-101.94-72.458a5.656 5.656 0 0 1 0 11.312 5.653 5.653 0 0 1-5.654-5.654 5.654 5.654 0 0 1 5.654-5.658zm-35.146 11.312a5.655 5.655 0 1 1 .003-11.31 5.655 5.655 0 0 1-.003 11.31zm127.81 123.09h-92.593c-17.001 0-30.824-13.962-30.824-31.116v-43.095c0-6.949 4.708-12.955 10.955-13.971a13.217 13.217 0 0 1 15.462 13.025v35.231c0 12.14 9.878 22.018 22.018 22.018h9.254c.358 0 .707-.048 1.042-.13a39.916 39.916 0 0 0 25.226 8.936 48.648 48.648 0 0 0 25.671-7.285c6.988 2.773 12.245 9.107 13.788 16.386zm.12-43.447a45.876 45.876 0 0 1-9.938 14.686 45.738 45.738 0 0 1-14.695 9.839c-5.654 2.371-11.674 3.57-17.886 3.57h-.14a46.066 46.066 0 0 1-17.955-3.653 46.157 46.157 0 0 1-14.664-9.904 45.88 45.88 0 0 1-9.878-14.712c-2.397-5.715-3.605-11.8-3.587-18.077.021-6.23 1.255-12.267 3.67-17.938a45.814 45.814 0 0 1 9.904-14.621 45.883 45.883 0 0 1 14.686-9.852c5.693-2.402 11.757-3.622 18.016-3.64h.013c6.256.03 12.315 1.269 18.003 3.688a46.079 46.079 0 0 1 14.664 9.913 45.954 45.954 0 0 1 9.856 14.695c2.393 5.702 3.6 11.76 3.592 18.012-.013 6.247-1.246 12.302-3.661 17.995z" class="cls-2"/><path d="M255.62 381.68a4.402 4.402 0 0 1 4.403 4.403c0 2.428-1.97 4.407-4.403 4.407s-4.407-1.98-4.407-4.407a4.405 4.405 0 0 1 4.407-4.403M320.27 381.72c.593-4.939 1.147-9.372 1.687-13.518a1771.634 1771.634 0 0 1-11.98-5.292 40.035 40.035 0 0 0-14.105 8.91c-.004.004-.004.009-.009.013 0 .013-.004.035 0 .057.013 1.935.013 3.901.009 5.802v3.906h-.205v.296c.004 1.805.009 3.67-.013 5.514a1161 1161 0 0 1 10.475 4.481c4.45-3.217 9.08-6.547 14.14-10.17zM303.76 398.31a691.758 691.758 0 0 1-10.51-4.52 1444.24 1444.24 0 0 1-6.896 8.413c-.62.75-1.234 1.5-1.849 2.249.785 5.98 2.803 11.539 6.003 16.53a.7.7 0 0 0 .118.148s.026.018.109.035c3.97.872 8.125 1.8 12.68 2.838a991.75 991.75 0 0 1 5.715-8.875c-1.791-5.536-3.56-11.116-5.37-16.818zM352.9 388.59c.096-.68.2-1.36.31-2.018l.152-.986 1.434-9.324a39.754 39.754 0 0 0-12.52-10.92c-4.79 1.247-9.145 2.38-13.56 3.496-.485 4.028-1.012 8.366-1.622 13.226 4.289 3.135 8.827 6.46 13.849 10.166 3.919-1.203 7.964-2.445 11.957-3.64zM325.63 419.19c-.754-.004-1.513-.004-2.267-.004h-1.835v-.127h-.366c-2.11 0-4.285 0-6.434-.004a737.664 737.664 0 0 1-5.68 8.801c2.044 3.3 4.15 6.744 6.268 10.24 5.998 1.4 12.21 1.208 18.47-.562 1.526-2.747 3.518-6.334 5.597-9.96a1045.87 1045.87 0 0 1-7.214-8.397c-2.184.013-4.398.013-6.539.013zM359.37 401.3a1251.95 1251.95 0 0 1-4.686-6.112 869.981 869.981 0 0 1-11.726 3.553c-1.63 4.952-3.5 10.641-5.384 16.264 2.468 2.868 4.896 5.697 7.21 8.426 4.02-.771 7.96-1.495 11.309-2.105.008 0 .017-.005.026-.005 1.133-1.8 1.926-3.212 2.585-4.568a39.812 39.812 0 0 0 3.552-11.709.565.565 0 0 1-.078-.096c-.933-1.216-1.87-2.437-2.808-3.648z" class="cls-2"/></svg>