<?xml version="1.0" encoding="utf-8"?>
<svg version="1.1" xmlns="http://www.w3.org/2000/svg" xmlns:xlink="http://www.w3.org/1999/xlink" x="0px" y="0px" viewBox="0 0 850.4 425.4" style="enable-background:new 0 0 850.4 425.4;" xml:space="preserve">
<style type="text/css">
	.st0{fill:#FFFFFF;}
</style>
<g>
	<g>
		<g id="XMLID_00000167384942991340795530000014787718976610491029_">
			<g>
				<path class="st0" d="M661.6,77.8v47.1c0,10.5-2.6,18.5-7.7,23.8c-5.1,5.3-13,8-23.6,8h-13.9v-19.1H631c3.8,0,6.6-1.1,8.4-3.2
					c1.8-2.1,2.7-5.2,2.7-9.3V96h-12.3V77.8H661.6z"/>
				<polygon class="st0" points="637,183.7 628.5,252.7 606.9,250.1 615.4,181 				"/>
				
					<rect x="606.3" y="260.2" transform="matrix(0.1234 -0.9924 0.9924 0.1234 270.494 848.2061)" class="st0" width="18.1" height="21.6"/>
				<polygon class="st0" points="609.1,77.8 609.1,120 589.4,120 589.4,80.5 589.4,77.8 				"/>
				<polygon class="st0" points="572.8,180.3 577.3,196.3 563.2,200.1 558.7,184.1 				"/>
				<polygon class="st0" points="570.2,230.9 580,247 571,254.7 576.8,279.2 557.8,284.3 554.1,269.1 541.6,279.8 531.8,263.7 
					549.4,248.8 544.9,230.2 534.7,232.4 531.8,212.8 540.4,211 533.8,183.9 552.9,178.8 559.6,206.9 576.2,203.5 579.1,223.1 
					564.2,226.2 566.2,234.4 				"/>
				<path class="st0" d="M397.8,297.3h50.9v-16.1h9.8v8.8h20v7.2h47.9v-7.2h4.5l7.2,11.8l7.4-6.4l1.6,6.6l40.5-10.8l49.8,6.2
					l15.6-126.3l-10-1.2c8.6-1.8,15.7-5.5,21.2-11.1c7.8-8.1,11.7-19.5,11.7-33.9V63.3H575V66h-30.7v-5.4h-47.9V66h-21.4v23.3
					c-4.2-6.3-9.7-11.3-16.2-15c-7.5-4.3-15.7-6.5-24.4-6.5c-4.3,0-8.6,0.5-12.7,1.7c-4.2,1.1-8.3,2.8-12,5l-29.1,16.9v-1.1h-0.4
					V65.8h-48.9v-4.3h-48.3v4.3h-5.4v8.5l-24.9-22.7l-17.5,18.4v-8.4h-47.9v15.4h-10.7v47.9h10.7v46.3h62.9v11.9h-39.9v52.6h19.2
					l-24.6,37.3l43.4,29.8l28.8-43.1l30.7,43.5l34.5-26.5v20.6h51.6v-51.6l3.5,0.7V297.3z M690.4,113.3v11.5
					c0,18.1-5.2,32.7-15.5,43.6c-0.1,0.1-0.1,0.2-0.2,0.3c-0.8,0.8-1.6,1.5-2.4,2.2c-1.6,1.5-3.4,3-5.2,4.2l-17.1,138.4l-61.4-7.6
					l-48.2,12.8l-5.8,5l-7.4-12.1l-199,0.1V306L305,323.8l-27.3-38.7l-25.3,37.8l-67.1-46.2L203,250h-6.8v-10.5v-54h-0.8h-21.6h-0.7
					v-46.3h-2.8h-7.9v-47v-3.4V62.4h10.7v-8.1v-3.4V47h64.1l14.9-15.7L269.4,47h76.5v4.3h48.9v15.3l7.7-4.5c4.7-2.8,10-5.1,15.5-6.5
					c5.3-1.4,10.9-2.1,16.5-2.1c9.2,0,18,1.9,26.2,5.6v-7.5H482v-5.4h76.7v5.4h1.8v-2.7h129.8v60.5V113.3z"/>
				<path class="st0" d="M509.2,217.3h4.2V211h-4.2V217.3z M509.2,238.7h4.2v-6.3h-4.2V238.7z M492,217.3h4.1V211H492V217.3z
					 M492,238.7h4.1v-6.3H492V238.7z M531,263.7v11.9h-19v7.2h-19v-7.2h-20.1v-8.8v-9H493v-4.1h-17.5v-57.8h41.2h8.8h4.2v16.9v40.9
					H512v4.1h19V263.7z"/>
				<polygon class="st0" points="510.2,193.7 515.9,175.9 530.4,180.6 525.5,195.9 516.7,195.9 				"/>
				<polygon class="st0" points="506.3,176.2 509.7,190.4 496,193.7 492.7,179.5 				"/>
				<path class="st0" d="M507,132.9c1.1,0,2-0.4,2.8-1.2c0.8-0.8,1.1-1.8,1.1-2.8c0-0.1,0-0.2,0-0.3c0-0.3,0.2-0.5,0.2-0.9
					c0-1.1-0.4-2-1.2-2.7c-0.8-0.8-1.7-1.2-2.8-1.2c-1.1,0-2.1,0.4-2.8,1.2c-0.8,0.8-1.1,1.7-1.1,2.8c0,0.1,0,0.2,0,0.3
					c-0.1,0.3-0.2,0.6-0.2,0.9c0,1.1,0.4,2,1.1,2.7C504.9,132.5,505.9,132.9,507,132.9z M507,151.9c-6.4,0-11.8-2.2-16.3-6.7
					c-4.5-4.5-6.7-9.9-6.7-16.2c0-6.4,2.2-11.8,6.7-16.3c4.5-4.5,9.9-6.7,16.3-6.7c0.6,0,1.3,0.1,1.9,0.1c0.2,0,0.9,0.1,2,0.3v-6.9
					h-21.4v-19h21.4v-5.4h19v5.4h34.4v19h-17.6h-16.7v18.3v10.4v0.6c0,2.6,1,4.9,3,6.7c1.9,1.9,4.3,2.8,7,2.8c2.7,0,5-0.9,7-2.8
					c1.9-1.9,2.9-4.2,2.9-6.9l-14.6-10.8l11.5-15.3l22.2,16v10.1c0,8-2.8,14.8-8.5,20.4c-5.6,5.7-12.4,8.5-20.4,8.5
					c-4.1,0-7.9-0.8-11.5-2.4c-3.6-1.6-6.7-3.8-9.4-6.5c-1.9,1.1-3.8,2-5.7,2.5C511.3,151.6,509.2,151.9,507,151.9z"/>
				<polygon class="st0" points="489,178.1 492.4,192.3 478.9,195.6 475.4,181.4 				"/>
				<polygon class="st0" points="453.6,186.8 453.6,207 434.3,207 434.3,217.8 451.9,217.8 451.9,237 434.3,237 434.3,247.4 
					451.9,247.4 451.9,266.7 434.3,266.7 434.3,282.8 412.3,282.8 412.3,234.3 412.3,207 408.5,207 403.7,232.7 382.2,228.8 
					391.8,176.4 413.5,180.4 412.3,186.8 				"/>
				<path class="st0" d="M425.5,83.5c2.9-0.8,5.9-1.1,9-1.1c6.2,0,12,1.5,17.3,4.5c5.3,3.1,9.6,7.3,12.8,12.9
					c3.1,5.4,4.6,11.5,4.6,18.2c0,5.8-1.2,11.1-3.6,15.8c-2.7,5.2-6.9,9.5-12.6,12.8l-19,11.2l-9.6-16.2l18-10.5
					c2.6-1.5,4.5-3.5,5.9-5.9c1.4-2.5,2-5.1,2-8c0-2.7-0.7-5.4-2.2-7.9c-1.5-2.6-3.4-4.5-5.9-5.9c-2.5-1.4-5.1-2-8-2
					c-2.7,0-5.4,0.7-7.9,2.1l-32,18.6l-8.8-16.7L417,87.1C419.7,85.5,422.5,84.3,425.5,83.5z"/>
				<polygon class="st0" points="384.9,181.8 373.2,231.3 379.8,231.3 379.8,282.8 357.1,282.8 357.1,247.3 357.1,240 348,237.6 
					361.9,177.6 				"/>
				<path class="st0" d="M366.3,116.6v6.6h-21c-1.7,0-3.2,0.6-4.5,1.9c-1.2,1.2-1.9,2.7-1.9,4.4c0,1.8,0.6,3.2,1.9,4.5
					c1.2,1.2,2.7,1.9,4.5,1.9h21v18.2h-21c-6.8,0-12.6-2.4-17.4-7.2c-4.8-4.8-7.2-10.6-7.2-17.4s2.4-12.6,7.2-17.4
					c4.8-4.8,10.6-7.2,17.4-7.2h20.6h0.4V116.6z"/>
				<polygon class="st0" points="300,227.9 329.8,268.3 311.3,282.6 281.7,240.8 				"/>
				<polygon class="st0" points="329.7,197.4 329.7,221.1 300,221.1 285.8,221.1 275.4,236.6 244.7,282.6 225,269 256.5,221.1 
					225,221.1 225,197.4 264.9,197.4 264.9,178.2 289.8,178.2 289.8,197.4 				"/>
				<polygon class="st0" points="317.1,75.9 317.1,80.2 365.9,80.2 365.9,99.1 317.1,99.1 317.1,156.8 297.7,156.8 297.7,99.1 
					292.3,99.1 292.3,80.2 297.7,80.2 297.7,75.9 				"/>
				<polygon class="st0" points="275.5,91.5 264.2,103.5 242.3,83.6 253.6,71.7 				"/>
				<path class="st0" d="M266.4,121.2v35.4h-1.6h-35.2v-18.9h17.7v-16.5c0-3-1-5.6-2.9-7.7c-1.9-2.1-4.6-3.2-8-3.2h-15.6v46.3H202
					v-46.3h-10.7v-19H202V75.9h18.9v15.4h15.6c8.6,0,15.7,2.9,21.4,8.8C263.6,105.9,266.4,112.9,266.4,121.2z"/>
			</g>
			<g>
			</g>
		</g>
	</g>
</g>
<g>
	<g id="XMLID_2_">
		<g>
			<path class="st0" d="M704.7,358.3l-1.6-10.6v-7.3c0-1.4,0.2-3.6,3.8-3.6c2.9,0,3.9,1.2,3.9,3.6v7.3l-1.5,10.6
				c-0.2,1.3-0.4,2.7-2.3,2.7C705.1,361,704.9,359.9,704.7,358.3z"/>
			<path class="st0" d="M711.2,367.5c0,2.3-1.9,4.2-4.2,4.2c-2.3,0-4.3-1.9-4.3-4.2c0-2.3,1.9-4.2,4.3-4.2
				C709.2,363.3,711.2,365.1,711.2,367.5z"/>
			<path class="st0" d="M691,363.3c2.3,0,4.2,1.8,4.2,4.2c0,2.3-1.9,4.2-4.2,4.2s-4.2-1.9-4.2-4.2
				C686.8,365.1,688.7,363.3,691,363.3z"/>
			<path class="st0" d="M694.9,347.7l-1.6,10.6c-0.2,1.3-0.4,2.7-2.2,2.7c-2,0-2.2-1-2.4-2.7l-1.5-10.6v-7.3c0-1.4,0.2-3.6,3.8-3.6
				c2.9,0,3.9,1.2,3.9,3.6V347.7z"/>
			<path class="st0" d="M660.4,337.7h7.5c4.9,0,6.7,1,7.3,1.4c2.5,1.5,5.1,4.6,5.1,9.4c0,4.3-2,7.8-4.7,9.5
				c-2.6,1.7-6.8,1.7-7.7,1.7h-5.5v8.4c0,1.4-0.3,3.6-3.8,3.6c-2.7,0-3.9-1.1-3.9-3.6v-24.6C654.6,339.1,656.7,337.7,660.4,337.7z
				 M667.5,353c3.9,0,4.8-2,4.8-4.3c0-2.7-1.4-4.3-4.8-4.3h-4c-0.7,0-1.1,0.4-1.1,1.1v7.5H667.5z"/>
			<path class="st0" d="M646.5,368.1c0,1.4-0.2,3.6-3.8,3.6c-2.9,0-3.9-1.2-3.9-3.6v-20.8v-6.9c0-1.4,0.2-3.6,3.8-3.6
				c2.9,0,3.9,1.2,3.9,3.6V368.1z"/>
			<path class="st0" d="M619.8,352c2.8,0,4.4-1.7,4.4-3.9c0-3.7-3.5-3.7-4.3-3.7h-6.2c-0.8,0-1.2,0.4-1.2,1.1v6.4H619.8z
				 M627.6,355.1c3.3,1.6,3.3,4.4,3.3,10c0,0.5,0.3,2.5,0.3,3.4c0,0.1,0,0.2,0,0.3c0,1-0.1,2.8-3.8,2.8c-3.3,0-4.3-1.3-4.3-7.5
				c0-3,0-3.8-0.9-4.6c-0.3-0.3-0.9-0.9-3.3-0.9h-6.5v9.5c0,1.4-0.3,3.6-3.9,3.6c-2.8,0-3.9-1.2-3.9-3.6v-24.6
				c0-4.5,2.2-5.8,5.9-5.8h9.5c3.8,0,6,0.4,8.2,2.1c1.8,1.5,3.6,3.9,3.6,7.5C631.9,348,631.9,353.1,627.6,355.1z"/>
			<path class="st0" d="M575.4,337.7h20.5c0.8,0,3.4,0,3.4,3.3c0,2.5-1.2,3.4-3.4,3.4h-6.4v23.7c0,1.3-0.2,3.6-3.8,3.6
				c-2.4,0-3.9-0.7-3.9-3.6v-23.7h-6.4c-1,0-3.4-0.2-3.4-3.3C572,337.9,574,337.7,575.4,337.7z"/>
			<path class="st0" d="M537.4,344.4c-0.8,0-1.2,0.4-1.2,1.1v5.2h12.1c1.4,0,3.3,0.4,3.3,3.1c0,1.6-0.4,3.3-3.3,3.3h-12.1v5.9
				c0,0.7,0.4,1.2,1.2,1.2h13.2c1.2,0,3.5,0.2,3.5,3.3c0,3-1.9,3.4-3.5,3.4h-16.3c-4,0-5.8-1.6-5.8-5.8v-21.5c0-4.5,2.2-5.8,5.8-5.8
				h15.3c0.9,0,3.5,0,3.5,3.3c0,2.5-1.2,3.4-3.5,3.4H537.4z"/>
			<path class="st0" d="M498.3,368.1v-24.6c0-4.5,2.1-5.8,5.8-5.8h14.8c0.9,0,3.5,0,3.5,3.3c0,2.5-1.3,3.4-3.5,3.4h-11.7
				c-0.7,0-1.1,0.4-1.1,1.1v6h10.9c1.5,0,3.4,0.4,3.4,3.1c0,1.6-0.4,3.2-3.4,3.2h-10.9v10.2c0,1.3-0.2,3.6-3.8,3.6
				C499.9,371.6,498.3,370.9,498.3,368.1z"/>
			<path class="st0" d="M481.3,358l-3.3-9.4c-0.4-1.1-0.8-1.2-1-1.2c-0.4,0-0.7,0.3-1,1.2l-3.3,9.4H481.3z M492.5,366.6
				c0.1,0.2,0.4,1,0.4,1.7c0,2.6-3.6,3.4-4.9,3.4c-1.4,0-2.2-1.2-2.7-2.4l-1.7-4.7h-13.4l-1.6,4.7c-0.4,1.2-1.2,2.4-2.8,2.4
				c-1.8,0-4.8-1.2-4.8-3.2c0-0.2,0-0.9,0.3-1.8l8.8-24.7c1.2-3.2,3-5,6.7-5c2.6,0,5.2,0.7,6.8,5L492.5,366.6z"/>
			<path class="st0" d="M443.3,336.8c8.5,0,12.8,5.1,12.8,8.9c0,2.6-2.7,2.8-3.8,2.8c-2.8,0-3.3-1.1-3.7-1.9c-1-2.1-1.5-3.1-5.5-3.1
				c-1.1,0-5.3,0-5.3,2.6c0,2.1,1,2.4,8.2,4.9c7.5,2.6,10.9,4.7,10.9,9.8c0,3.7-2.5,10.7-13.1,10.7c-11.7,0-14.6-6.9-14.6-9.3
				c0-3.3,3.5-3.3,4-3.3c2.2,0,3.4,0.9,3.6,1.7c0.6,2.2,0.8,2.8,2.7,3.5c1.3,0.4,2.8,0.6,4,0.6c1.5,0,5.4,0,5.4-3.2
				c0-1.3-0.6-2.1-7-4.2c-2.5-0.8-4.9-1.6-6.8-2.6c-3.2-1.6-5.3-3.8-5.3-8C429.8,344,431.1,336.8,443.3,336.8z"/>
			<path class="st0" d="M399,358l-3.3-9.4c-0.4-1.1-0.8-1.2-1-1.2c-0.3,0-0.6,0.3-1,1.2l-3.3,9.4H399z M410.3,366.6
				c0.1,0.2,0.3,1,0.3,1.7c0,2.6-3.6,3.4-4.8,3.4c-1.5,0-2.3-1.2-2.8-2.4l-1.7-4.7H388l-1.6,4.7c-0.5,1.2-1.2,2.4-2.8,2.4
				c-1.8,0-4.7-1.2-4.7-3.2c0-0.2-0.1-0.9,0.3-1.8l8.8-24.7c1.2-3.2,3-5,6.7-5c2.5,0,5.2,0.7,6.8,5L410.3,366.6z"/>
			<path class="st0" d="M357.5,364.1c1.2,0,3.5,0.2,3.5,3.3c0,3-2,3.4-3.5,3.4h-16.3c-4,0-5.8-1.6-5.8-5.8v-21.5
				c0-4.5,2.1-5.8,5.8-5.8h15.3c0.8,0,3.4,0,3.4,3.3c0,2.5-1.3,3.4-3.4,3.4h-12.3c-0.7,0-1.1,0.4-1.1,1.1v5.2h12.2
				c1.5,0,3.3,0.4,3.3,3.1c0,1.6-0.4,3.3-3.3,3.3H343v5.9c0,0.7,0.4,1.2,1.1,1.2H357.5z"/>
			<path class="st0" d="M329.9,340.1c0,0.4-0.1,1.3-0.3,2l-6.2,19.1l-7.3-2.4l6.3-19.4c0.3-1.1,1.3-2.5,3.3-2.5
				C327.9,336.8,329.9,338.5,329.9,340.1z"/>
			<path class="st0" d="M323.4,361.1l-2,6.1c-0.3,1-1.4,4.5-6.3,4.5c-1.4,0-5.1-0.1-6.5-4.5l-2-6.1l7.4-2.4c0.3,0.9,0.5,1.2,1,1.2
				c0.4,0,0.7-0.3,1-1.2L323.4,361.1z"/>
			<path class="st0" d="M307.8,339.3l6.3,19.4l-7.4,2.4l-6.2-19.1c-0.2-0.5-0.3-1.3-0.3-1.9c0-1.7,2-3.3,4.3-3.3
				C306.8,336.8,307.6,339,307.8,339.3z"/>
			<path class="st0" d="M285.8,358l-3.3-9.4c-0.4-1.1-0.7-1.2-0.9-1.2c-0.4,0-0.7,0.3-1,1.2l-3.3,9.4H285.8z M270.4,371.6
				c-1.8,0-4.8-1.2-4.8-3.2c0-0.2,0-0.9,0.3-1.8l8.8-24.7c1.2-3.2,3-5,6.7-5c2.6,0,5.3,0.7,6.8,5l8.8,24.7c0.1,0.2,0.3,1,0.3,1.7
				c0,2.6-3.6,3.4-4.8,3.4c-1.5,0-2.3-1.2-2.8-2.4l-1.7-4.7h-13.4l-1.6,4.7C272.7,370.4,271.9,371.6,270.4,371.6z"/>
			<path class="st0" d="M260.1,340.4v27.7c0,1.3-0.3,3.6-3.8,3.6c-2.4,0-3.9-0.8-3.9-3.6v-11.5h-11.8v11.5c0,1.3-0.3,3.6-3.8,3.6
				c-2.4,0-3.9-0.7-3.9-3.6v-27.7c0-1.3,0.2-3.6,3.8-3.6c2.4,0,4,0.7,4,3.6v9.5h11.8v-9.5c0-1.7,0.6-3.6,3.8-3.6
				C258.6,336.8,260.1,337.7,260.1,340.4z"/>
		</g>
		<g>
		</g>
	</g>
	<g>
		<g>
			<path class="st0" d="M227.3,369.3c-1.2,0.3-5.2,1-10.4,1.7c-1.3,3.9-3.5,7.5-6.4,10.5C222.1,375.8,229.3,368.9,227.3,369.3z"/>
			<path class="st0" d="M171.1,380.8c-7.1-7.8-8.8-18.6-5.4-27.8c-1.1-3.1-1.9-6.2-2.4-9.2c-0.6-3.2-2.3-5.3-4.6-6.4l0.7-8.8
				c1.2-0.5,2.2-1.6,2.6-3c0.6-2.4-0.9-4.9-3.3-5.5c-2.4-0.6-4.9,0.9-5.5,3.3c-0.5,1.9,0.3,3.8,1.9,4.9l-0.7,8
				c-2.2-0.2-4.4,0.3-6.4,1.1l-1.6-9.6c1.1-0.8,1.7-2.1,1.7-3.6c0-2.5-2-4.5-4.5-4.5c-2.5,0-4.5,2-4.5,4.5c0,2,1.3,3.6,3,4.2
				l1.9,11.8c-0.8,0.9-1.3,2-1.5,3.3c0,0-6.4,31.7,24.5,42.7c5.6,2,11.3,2.7,16.9,2.5C179.1,387.3,174.6,384.6,171.1,380.8z"/>
		</g>
		<path class="st0" d="M171.6,377.1c-2-2.6-3.5-5.6-4.3-8.8c-0.9-3.5-1-7.2-0.3-10.8c1.1-5.7,4.3-10.8,8.9-14.4
			c0.6-0.5,1.2-0.9,1.8-1.3c3.1-2,6.5-3.2,10.2-3.6c6.6-0.8,13.2,1.2,18.3,5.4c1.4,1.1,2.6,2.4,3.7,3.8c1.1,1.5,2.1,3,2.9,4.7
			c2.8,6,3,12.9,0.5,19.1c-1.3,3.4-3.4,6.4-6.1,8.9c-0.5,0.5-1.1,0.9-1.6,1.4c-4.7,3.6-10.5,5.4-16.3,5c-3.6-0.2-7.2-1.3-10.4-3
			C176,381.8,173.6,379.6,171.6,377.1z M171.1,369.8c0.7,1.9,1.7,3.7,3,5.3c1.3,1.6,2.8,3.1,4.5,4.3l0-2.2c-1.1-0.9-2.2-2-3.1-3.1
			c-0.9-1.1-1.6-2.3-2.2-3.6L171.1,369.8z M175.1,369.7c0.5,1.1,1.2,2.2,1.9,3.2c0.7,0.9,1.5,1.8,2.4,2.5l7.2-2.4l1-3.6l-4.7-6
			l-3.5,0.1L175.1,369.7z M177.4,345.9c-3.3,2.6-5.6,6.1-6.8,10.1l2.1-0.7c1-2.7,2.7-5.1,4.8-7.1L177.4,345.9z M191.8,383.2
			c4.2-0.2,8.1-1.6,11.4-4.1l-2.1-0.7c-2.4,1.5-5.2,2.5-8,2.9L191.8,383.2z M193,379.4c2.4-0.3,4.7-1.1,6.8-2.4l-0.1-7.4l-3.2-2.2
			l-6.8,2.5l-1,3.6L193,379.4z M179.1,361.5l3.9-0.1l4.1-6l-1.3-3.5l-7.1-2.2c-1.8,1.7-3.1,3.7-4.1,5.9L179.1,361.5z M188.9,354.5
			l7.3,2.1l2.8-2.2L199,347c-2.1-1.1-4.5-1.8-6.9-2l-4.4,6.2L188.9,354.5z M197.7,365.8l2.8,1.9l7.2-2.4c0.4-2.4,0.4-4.8-0.2-7.2
			l-7.2-2.3l-3,2.3L197.7,365.8z M191.8,342.9c2.9,0.2,5.7,1,8.2,2.3l2.2-0.7c-3.5-2.2-7.5-3.4-11.7-3.4L191.8,342.9z M211.1,367.6
			c1.1-4,0.9-8.2-0.4-12.2l-1.3,1.8c0.7,2.8,0.8,5.7,0.3,8.5L211.1,367.6z"/>
	</g>
</g>
</svg>
