<?xml version="1.0" encoding="utf-8"?>
<!-- Generator: Adobe Illustrator 27.6.1, SVG Export Plug-In . SVG Version: 6.00 Build 0)  -->
<svg version="1.1" xmlns="http://www.w3.org/2000/svg" xmlns:xlink="http://www.w3.org/1999/xlink" x="0px"
	 y="0px" viewBox="0 0 850.4 425.4" style="enable-background:new 0 0 850.4 425.4;" xml:space="preserve">
<style type="text/css">
	.st0{fill:#FFFFFF;}
</style>
<g id="XMLID_00000034811538987269181140000009605685162165190820_">
	<path class="st0" d="M707.1,118.8v12.3c0,19.3-5.6,35-16.6,46.6c-0.1,0.1-0.1,0.2-0.2,0.3c-0.8,0.8-1.7,1.6-2.5,2.3
		c-1.7,1.6-3.6,3.2-5.5,4.5L664,332.6l-65.6-8.1l-51.5,13.7l-6.2,5.4l-7.9-13l-212.6,0.1v-6.1l-24.7,19l-29.2-41.3l-27,40.4
		l-71.7-49.3l18.8-28.6h-7.3v-11.2v-57.7h-0.8h-23h-0.7v-49.5h-3h-8.4V96.2v-3.7V64.5h11.4v-8.7v-3.7V48h68.5l16-16.7L257.4,48h81.7
		v4.6h52.2v16.3l8.3-4.8c5-3,10.7-5.4,16.6-7c5.7-1.5,11.6-2.3,17.6-2.3c9.8,0,19.2,2,27.9,6v-8h22.8v-5.7h81.9v5.7h1.9V50h138.7
		v64.6V118.8z M691.7,131.2V65.5H583.8v2.9h-32.8v-5.7H500v5.7h-22.8v24.9c-4.5-6.7-10.3-12.1-17.3-16c-8-4.6-16.8-6.9-26.1-6.9
		c-4.6,0-9.2,0.6-13.6,1.8c-4.5,1.2-8.9,3-12.8,5.4l-31,18v-1.1H376V68h-52.2v-4.6h-51.5V68h-5.7v9l-26.6-24.3l-18.7,19.6v-9H170
		v16.4h-11.4V131H170v49.5h67.1v12.7h-42.6v56.2h20.5l-26.2,39.9l46.4,31.9l30.8-46l32.8,46.4l36.9-28.3v22h55.1v-55.1l3.8,0.7v54.4
		H449v-17.2h10.4v9.4h21.4v7.7h51.1v-7.7h4.8l7.7,12.6l7.9-6.8l1.7,7.1l43.3-11.5l53.2,6.6l16.6-134.9l-10.7-1.3
		c9.2-1.9,16.8-5.8,22.6-11.9C687.5,158.7,691.7,146.5,691.7,131.2z"/>
	<path class="st0" d="M676.3,80.9v50.3c0,11.3-2.8,19.8-8.2,25.5c-5.5,5.7-13.9,8.6-25.2,8.6H628v-20.4h15.7c4.1,0,7.1-1.1,8.9-3.4
		c1.9-2.3,2.8-5.6,2.8-9.9v-31.1h-13.1V80.9H676.3z"/>
	<path class="st0" d="M661.7,356.9v7.4l-1.6,10.8c-0.2,1.3-0.4,2.7-2.3,2.7c-2,0-2.2-1.1-2.4-2.7l-1.6-10.8v-7.4
		c0-1.4,0.2-3.6,3.8-3.6C660.7,353.3,661.7,354.5,661.7,356.9z"/>
	<path class="st0" d="M662,384.5c0,2.4-1.9,4.3-4.2,4.3c-2.4,0-4.3-1.9-4.3-4.3c0-2.4,2-4.3,4.3-4.3C660,380.2,662,382,662,384.5z"
		/>
	<polygon class="st0" points="650,194 640.9,267.7 617.9,264.9 627,191.1 	"/>
	<path class="st0" d="M645.4,356.9v7.4l-1.6,10.8c-0.2,1.3-0.4,2.7-2.3,2.7c-2,0-2.2-1.1-2.4-2.7l-1.6-10.8v-7.4
		c0-1.4,0.2-3.6,3.8-3.6C644.4,353.3,645.4,354.5,645.4,356.9z"/>
	<path class="st0" d="M641.5,380.2c2.3,0,4.3,1.8,4.3,4.3c0,2.4-1.9,4.3-4.3,4.3c-2.3,0-4.3-1.9-4.3-4.3
		C637.2,382.1,639.2,380.2,641.5,380.2z"/>
	
		<rect x="617.2" y="275.7" transform="matrix(0.1234 -0.9924 0.9924 0.1234 264.5179 873.9188)" class="st0" width="19.4" height="23.1"/>
	<path class="st0" d="M630.6,365.1c0,4.4-2.1,7.9-4.8,9.7c-2.6,1.7-7,1.7-7.8,1.7h-5.6v8.6c0,1.4-0.2,3.7-3.9,3.7
		c-2.8,0-4-1.1-4-3.7v-25c0-4.5,2.1-5.9,5.9-5.9h7.6c5,0,6.8,1,7.5,1.4C628.1,357.1,630.6,360.2,630.6,365.1z M617.6,369.7
		c3.9,0,4.9-2.1,4.9-4.4c0-2.7-1.3-4.4-4.9-4.4h-4.1c-0.7,0-1.2,0.4-1.2,1.2v7.6H617.6z"/>
	<polygon class="st0" points="620.3,80.9 620.3,126 599.2,126 599.2,83.7 599.2,80.9 	"/>
	<path class="st0" d="M596.2,356.9v28.2c0,1.4-0.2,3.7-3.9,3.7c-2.9,0-3.9-1.2-3.9-3.7v-28.2c0-1.4,0.2-3.6,3.9-3.6
		C595.1,353.3,596.2,354.5,596.2,356.9z"/>
	<polygon class="st0" points="578.7,244.4 589.1,261.6 579.5,269.8 585.8,296 565.4,301.4 561.5,285.2 548.2,296.6 537.7,279.4 
		556.5,263.6 551.7,243.7 540.8,246 537.7,225.1 546.8,223.2 539.8,194.2 560.2,188.8 567.4,218.8 585.1,215.1 588.2,236 
		572.3,239.4 574.4,248.1 	"/>
	<polygon class="st0" points="581.5,190.3 586.3,207.4 571.2,211.5 566.4,194.4 	"/>
	<path class="st0" d="M581.4,363.9c0,0.7,0,5.9-4.4,7.9c3.3,1.6,3.3,4.5,3.4,10.2c0,0.6,0.3,3.2,0.3,3.8c0,1,0,2.9-3.8,2.9
		c-3.3,0-4.4-1.3-4.4-7.6c0-3.1,0-3.8-0.9-4.7c-0.3-0.3-0.9-0.9-3.3-0.9h-6.6v9.6c0,1.4-0.3,3.7-4,3.7c-2.8,0-4-1.2-4-3.7v-25
		c0-4.5,2.2-5.9,6-5.9h9.7c3.8,0,6,0.4,8.4,2.2C579.6,357.8,581.4,360.3,581.4,363.9z M573.6,364.7c0-3.8-3.5-3.8-4.4-3.8h-6.4
		c-0.8,0-1.1,0.4-1.1,1.2v6.6h7.3C571.9,368.7,573.6,366.9,573.6,364.7z"/>
	<path class="st0" d="M577.2,124.3v10.8c0,8.5-3,15.8-9,21.8s-13.3,9-21.8,9c-4.3,0-8.4-0.9-12.3-2.6c-3.9-1.7-7.2-4-10.1-7
		c-2,1.2-4,2.1-6.1,2.7c-2.1,0.6-4.3,0.9-6.7,0.9c-6.8,0-12.6-2.4-17.4-7.2c-4.8-4.8-7.2-10.5-7.2-17.3c0-6.8,2.4-12.6,7.2-17.4
		c4.8-4.8,10.6-7.2,17.4-7.2c0.7,0,1.4,0.1,2.1,0.1c0.2,0,0.9,0.1,2.1,0.3V104h-22.8V83.7h22.8V78h20.3v5.7h36.7V104h-18.8h-17.9
		v19.5v11.2v0.7c0,2.8,1.1,5.2,3.2,7.2c2.1,2,4.6,3,7.4,3c2.9,0,5.4-1,7.4-3c2-2,3.1-4.5,3.1-7.4l-15.6-11.6l12.3-16.4L577.2,124.3z
		 M515.4,135.1c0-0.3,0.2-0.6,0.2-0.9c0-1.1-0.4-2.1-1.3-2.9c-0.8-0.9-1.8-1.3-3-1.3c-1.2,0-2.2,0.4-3,1.3c-0.9,0.8-1.2,1.8-1.2,3
		c0,0.1,0,0.2,0,0.3c-0.1,0.3-0.2,0.6-0.2,1c0,1.1,0.4,2.1,1.2,2.9c0.8,0.9,1.9,1.3,3.1,1.3c1.1,0,2.1-0.4,3-1.3
		c0.8-0.9,1.2-1.9,1.2-3C515.4,135.4,515.4,135.2,515.4,135.1z"/>
	<path class="st0" d="M544.7,354.1c0.9,0,3.4,0,3.4,3.4c0,2.5-1.2,3.4-3.4,3.4h-6.5v24.1c0,1.3-0.2,3.7-3.9,3.7c-2.5,0-4-0.8-4-3.7
		V361h-6.4c-1.1,0-3.5-0.2-3.5-3.4c0-3.2,2.1-3.4,3.5-3.4H544.7z"/>
	<path class="st0" d="M536.8,279.4v12.7h-20.3v7.7h-20.3v-7.7h-21.4v-9.4v-9.6h21.4v-4.3h-18.7V207h44h9.4h4.5v18v43.7h-18.9v4.3
		h20.3V279.4z M518,252.7V246h-4.5v6.8H518z M518,229.9v-6.7h-4.5v6.7H518z M499.5,252.7V246h-4.3v6.8H499.5z M499.5,229.9v-6.7
		h-4.3v6.7H499.5z"/>
	<polygon class="st0" points="536.2,190.7 530.9,207 521.6,207 514.6,204.6 520.7,185.6 	"/>
	<polygon class="st0" points="510.4,186 514.1,201.2 499.5,204.6 496,189.5 	"/>
	<path class="st0" d="M498.6,381.1c1.2,0,3.5,0.2,3.5,3.3c0,3.1-1.9,3.4-3.5,3.4H482c-4.1,0-6-1.6-6-5.9V360c0-4.5,2.2-5.9,6-5.9
		h15.6c0.9,0,3.5,0,3.5,3.4c0,2.5-1.3,3.4-3.5,3.4h-12.5c-0.8,0-1.2,0.4-1.2,1.2v5.3h12.4c1.5,0,3.4,0.4,3.4,3.1
		c0,1.6-0.4,3.3-3.4,3.3h-12.4v6c0,0.8,0.4,1.2,1.2,1.2H498.6z"/>
	<polygon class="st0" points="492,188 495.6,203.2 481.2,206.7 477.4,191.5 	"/>
	<path class="st0" d="M466.3,354.1c0.9,0,3.5,0,3.5,3.4c0,2.5-1.3,3.4-3.5,3.4h-11.9c-0.8,0-1.2,0.4-1.2,1.2v6.1h11
		c1.5,0,3.4,0.4,3.4,3.2c0,1.6-0.4,3.3-3.4,3.3h-11v10.4c0,1.3-0.2,3.7-3.8,3.7c-2.4,0-4.1-0.8-4.1-3.7v-25c0-4.5,2.1-5.9,5.9-5.9
		H466.3z"/>
	<path class="st0" d="M470.9,123.9c0,6.2-1.3,11.8-3.9,16.9c-2.9,5.6-7.4,10.1-13.4,13.6l-20.3,11.9L423.1,149l19.2-11.3
		c2.7-1.6,4.8-3.7,6.3-6.3c1.5-2.6,2.2-5.5,2.2-8.5c0-2.9-0.8-5.7-2.3-8.4c-1.6-2.7-3.7-4.8-6.3-6.3s-5.4-2.2-8.5-2.2
		c-2.9,0-5.7,0.8-8.4,2.3L391,128.2l-9.5-17.9l33.5-19.5c2.9-1.7,5.9-3,9-3.8c3.1-0.8,6.3-1.2,9.7-1.2c6.6,0,12.8,1.6,18.5,4.8
		c5.7,3.3,10.3,7.8,13.7,13.8C469.3,110.1,470.9,116.6,470.9,123.9z"/>
	<polygon class="st0" points="454.1,197.3 454.1,218.8 433.5,218.8 433.5,230.4 452.3,230.4 452.3,250.9 433.5,250.9 433.5,262 
		452.3,262 452.3,282.7 433.5,282.7 433.5,299.9 410,299.9 410,248 410,218.8 406,218.8 400.8,246.4 377.9,242.2 388.2,186.3 
		411.3,190.5 410,197.3 	"/>
	<path class="st0" d="M439.4,383.6c0.1,0.2,0.4,1,0.4,1.7c0,2.7-3.7,3.5-5,3.5c-1.5,0-2.4-1.3-2.8-2.5l-1.7-4.7h-13.6l-1.7,4.7
		c-0.4,1.2-1.2,2.5-2.9,2.5c-1.8,0-4.8-1.2-4.8-3.3c0-0.2-0.1-0.9,0.3-1.8l9-25.2c1.2-3.3,3.1-5.1,6.8-5.1c2.7,0,5.4,0.6,7,5.1
		L439.4,383.6z M428,374.8l-3.4-9.6c-0.4-1.1-0.8-1.2-1-1.2c-0.4,0-0.7,0.3-1.1,1.2l-3.4,9.6H428z"/>
	<path class="st0" d="M403.1,377.8c0,3.8-2.6,11-13.4,11c-11.9,0-14.8-7.1-14.8-9.5c0-3.3,3.5-3.3,4.1-3.3c2.2,0,3.4,0.9,3.7,1.7
		c0.7,2.2,0.8,2.9,2.8,3.6c1.3,0.4,2.8,0.6,4.1,0.6c1.5,0,5.5,0,5.5-3.2c0-1.3-0.6-2.1-7.2-4.3c-6.9-2.3-12.3-4-12.3-10.7
		c0-3.1,1.3-10.3,13.7-10.3c8.6,0,13,5.2,13,9c0,2.6-2.7,2.9-3.9,2.9c-2.8,0-3.4-1.1-3.8-1.9c-1.1-2.2-1.6-3.1-5.7-3.1
		c-1.1,0-5.4,0-5.4,2.6c0,2.1,1,2.5,8.4,5C399.6,370.4,403.1,372.6,403.1,377.8z"/>
	<polygon class="st0" points="380.8,192 368.2,244.8 375.3,244.8 375.3,299.9 351.1,299.9 351.1,262 351.1,254.2 341.3,251.6 
		356.2,187.4 	"/>
	<path class="st0" d="M360.9,142.9v19.5h-22.4c-7.3,0-13.5-2.6-18.6-7.7c-5.1-5.1-7.7-11.3-7.7-18.6s2.6-13.4,7.7-18.6
		c5.1-5.2,11.3-7.7,18.6-7.7h22h0.4v12.5v7.1h-22.4c-1.8,0-3.4,0.6-4.8,2c-1.3,1.3-2,2.9-2,4.7c0,1.9,0.7,3.4,2,4.8
		c1.3,1.3,2.9,2,4.8,2H360.9z"/>
	<polygon class="st0" points="360.5,83.4 360.5,103.7 308.3,103.7 308.3,165.3 287.6,165.3 287.6,103.7 281.9,103.7 281.9,83.4 
		287.6,83.4 287.6,78.9 308.3,78.9 308.3,83.4 	"/>
	<path class="st0" d="M355.8,383.6c0,0.2,0.3,1,0.3,1.7c0,2.7-3.7,3.5-5,3.5c-1.5,0-2.4-1.3-2.8-2.5l-1.7-4.7H333l-1.7,4.7
		c-0.4,1.2-1.2,2.5-2.9,2.5c-1.8,0-4.8-1.2-4.8-3.3c0-0.2,0-0.9,0.3-1.8l9-25.2c1.2-3.3,3.1-5.1,6.8-5.1c2.6,0,5.4,0.6,7,5.1
		L355.8,383.6z M344.2,374.8l-3.4-9.6c-0.4-1.1-0.8-1.2-1-1.2c-0.3,0-0.7,0.3-1,1.2l-3.3,9.6H344.2z"/>
	<polygon class="st0" points="290.1,241.2 321.9,284.3 302.1,299.6 270.6,255 	"/>
	<polygon class="st0" points="321.8,208.6 321.8,234 290.1,234 274.9,234 263.9,250.5 231,299.6 210,285.1 243.7,234 210,234 
		210,208.6 252.6,208.6 252.6,188.2 279.3,188.2 279.3,208.6 	"/>
	<path class="st0" d="M301.9,381.1c1.2,0,3.5,0.2,3.5,3.3c0,3.1-2,3.4-3.5,3.4h-16.6c-4.1,0-5.9-1.6-5.9-5.9V360
		c0-4.5,2.1-5.9,5.9-5.9h15.6c0.9,0,3.5,0,3.5,3.4c0,2.5-1.3,3.4-3.5,3.4h-12.5c-0.8,0-1.2,0.4-1.2,1.2v5.3h12.4
		c1.4,0,3.4,0.4,3.4,3.1c0,1.6-0.4,3.3-3.4,3.3h-12.4v6c0,0.8,0.4,1.2,1.2,1.2H301.9z"/>
	<path class="st0" d="M273.8,356.6c0,0.4-0.1,1.3-0.3,2l-8.3,25.6c-0.3,1-1.5,4.6-6.4,4.6c-1.4,0-5.2-0.1-6.6-4.6l-8.3-25.6
		c-0.2-0.5-0.3-1.3-0.3-1.9c0-1.7,2-3.3,4.4-3.3c2.4,0,3.2,2.1,3.3,2.6l6.4,19.7c0.3,0.9,0.5,1.3,1,1.3c0.4,0,0.7-0.3,1-1.3
		l6.4-19.7c0.3-1.2,1.3-2.6,3.4-2.6C271.9,353.3,273.8,355,273.8,356.6z"/>
	<polygon class="st0" points="263.9,95.6 251.9,108.3 228.5,87.1 240.6,74.4 	"/>
	<path class="st0" d="M254.3,127.2v37.8h-1.7H215v-20.2h18.9v-17.7c0-3.2-1-6-3.1-8.3c-2-2.3-4.9-3.4-8.5-3.4h-16.6v49.5h-20.2
		v-49.5h-11.4V95.3h11.4V78.9h20.2v16.4h16.6c9.2,0,16.8,3.1,22.9,9.4C251.2,110.9,254.3,118.4,254.3,127.2z"/>
	<path class="st0" d="M240.5,383.6c0.1,0.2,0.4,1,0.4,1.7c0,2.7-3.7,3.5-4.9,3.5c-1.5,0-2.4-1.3-2.8-2.5l-1.7-4.7h-13.6l-1.7,4.7
		c-0.4,1.2-1.2,2.5-2.9,2.5c-1.8,0-4.8-1.2-4.8-3.3c0-0.2-0.1-0.9,0.3-1.8l9-25.2c1.2-3.3,3.1-5.1,6.8-5.1c2.7,0,5.4,0.6,7,5.1
		L240.5,383.6z M229,374.8l-3.4-9.6c-0.4-1.1-0.8-1.2-1-1.2c-0.4,0-0.7,0.3-1.1,1.2l-3.3,9.6H229z"/>
	<path class="st0" d="M202.8,356.9v28.2c0,1.3-0.3,3.7-3.9,3.7c-2.4,0-4-0.8-4-3.7v-11.7H183v11.7c0,1.3-0.3,3.7-3.9,3.7
		c-2.4,0-4-0.8-4-3.7v-28.2c0-1.3,0.2-3.6,3.9-3.6c2.4,0,4.1,0.8,4.1,3.6v9.7h11.9v-9.7c0-1.7,0.5-3.6,3.9-3.6
		C201.3,353.3,202.8,354.1,202.8,356.9z"/>
</g>
</svg>
