<?xml version="1.0" encoding="utf-8"?>
<!-- Generator: Adobe Illustrator 24.2.1, SVG Export Plug-In . SVG Version: 6.00 Build 0)  -->
<svg version="1.1" id="レイヤー_1" xmlns="http://www.w3.org/2000/svg" xmlns:xlink="http://www.w3.org/1999/xlink" x="0px"
	 y="0px" viewBox="0 0 850.4 425.4" style="enable-background:new 0 0 850.4 425.4;" xml:space="preserve">
<style type="text/css">
	.st0{display:none;fill:#00913A;}
	.st1{fill:#FFFFFF;}
	.st2{fill:none;}
</style>
<rect class="st0" width="850.4" height="425.4"/>
<g>
	<g>
		<g>
			<g id="XMLID_3_">
				<g>
					<path class="st1" d="M632.5,97V78.5h32.4v48c0,10.7-2.6,18.9-7.8,24.3c-5.2,5.4-13.3,8.2-24.1,8.2h-14.1v-19.4h14.9
						c3.9,0,6.7-1.1,8.5-3.3c1.8-2.1,2.7-5.3,2.7-9.5V97H632.5z"/>
					<polygon class="st1" points="639.9,186.4 631.2,256.8 609.2,254.1 617.9,183.7 					"/>
					
						<rect x="608.5" y="264.4" transform="matrix(0.1226 -0.9925 0.9925 0.1226 268.6893 854.7937)" class="st1" width="18.5" height="22"/>
					<polygon class="st1" points="591.3,121.5 591.3,81.2 591.3,78.5 611.4,78.5 611.4,121.5 					"/>
					<polygon class="st1" points="564.6,203.1 560,186.9 574.4,183 579,199.2 					"/>
					<polygon class="st1" points="541.4,214.3 534.7,186.6 554.1,181.5 561,210.1 577.8,206.6 580.8,226.6 565.7,229.8 567.6,238.1 
						571.8,234.6 581.7,251 572.5,258.8 578.5,283.8 559.1,289 555.4,273.5 542.6,284.4 532.6,268 550.5,252.8 545.9,233.9 
						535.6,236.1 532.6,216.1 					"/>
					<polygon class="st1" points="517.2,198.9 510.6,196.6 516.4,178.5 531.2,183.3 526.2,198.9 					"/>
					<polygon class="st1" points="496.1,196.6 492.8,182.1 506.6,178.8 510.1,193.3 					"/>
					<path class="st1" d="M507.3,134.7c1.1,0,2.1-0.4,2.8-1.3c0.8-0.8,1.2-1.8,1.2-2.8c0-0.1,0-0.2,0-0.3c0-0.3,0.2-0.6,0.2-0.9
						c0-1.1-0.4-2-1.2-2.8c-0.8-0.8-1.7-1.2-2.8-1.2c-1.1,0-2.1,0.4-2.9,1.2c-0.8,0.8-1.2,1.8-1.2,2.9c0,0.1,0,0.2,0,0.3
						c-0.1,0.3-0.2,0.6-0.2,0.9c0,1.1,0.4,2,1.2,2.8C505.2,134.3,506.2,134.7,507.3,134.7z M490.7,147.2c-4.6-4.6-6.8-10.1-6.8-16.5
						c0-6.5,2.3-12,6.8-16.6c4.6-4.6,10.1-6.9,16.6-6.9c0.7,0,1.3,0.1,2,0.1c0.2,0,0.9,0.1,2,0.3v-7h-21.8V81.2h21.8v-5.5h19.3v5.5
						h35v19.3h-18h-17.1v18.6v10.6v0.7c0,2.7,1,4.9,3,6.8c2,1.9,4.4,2.8,7.1,2.8s5.1-0.9,7.1-2.9c2-1.9,2.9-4.3,2.9-7.1l-14.8-11
						l11.8-15.6l22.6,16.3v10.3c0,8.1-2.9,15.1-8.6,20.8s-12.7,8.6-20.8,8.6c-4.1,0-8-0.8-11.7-2.4c-3.7-1.6-6.9-3.8-9.6-6.7
						c-1.9,1.1-3.8,2-5.9,2.6c-2,0.6-4.1,0.9-6.4,0.9C500.8,154,495.3,151.7,490.7,147.2z"/>
					<polygon class="st1" points="478.7,198.6 475.1,184.1 489,180.7 492.4,195.2 					"/>
					<path class="st1" d="M509.5,220.7h4.3v-6.4h-4.3V220.7z M509.5,242.5h4.3v-6.4h-4.3V242.5z M492,220.7h4.1v-6.4H492V220.7z
						 M492,242.5h4.1v-6.4H492V242.5z M475.2,257.8v-58.9h42h9h4.3v17.2v41.7h-18v4.1h19.4v6.1v12.1h-19.4v7.3H493v-7.3h-20.4v-9
						v-9.2H493v-4.1H475.2z"/>
					<path class="st1" d="M392.6,123.6l-9-17.1l32-18.6c2.7-1.6,5.6-2.9,8.6-3.6c3-0.8,6-1.2,9.2-1.2c6.3,0,12.2,1.5,17.6,4.6
						c5.4,3.1,9.8,7.5,13.1,13.2c3.2,5.5,4.7,11.7,4.7,18.6c0,5.9-1.2,11.3-3.7,16.1c-2.8,5.3-7.1,9.7-12.8,13L433,160l-9.8-16.5
						l18.3-10.7c2.6-1.5,4.6-3.5,6-6c1.4-2.5,2.1-5.2,2.1-8.1c0-2.8-0.7-5.5-2.2-8c-1.5-2.6-3.5-4.6-6-6s-5.2-2.1-8.1-2.1
						c-2.8,0-5.5,0.7-8,2.2L392.6,123.6z"/>
					<polygon class="st1" points="402,236.4 380.1,232.4 389.9,179.1 412,183.1 410.7,189.6 452.8,189.6 452.8,210.2 433.2,210.2 
						433.2,221.2 451.1,221.2 451.1,240.8 433.2,240.8 433.2,251.3 451.1,251.3 451.1,271.1 433.2,271.1 433.2,287.5 410.7,287.5 
						410.7,238 410.7,210.2 406.9,210.2 					"/>
					<path class="st1" d="M324.8,148.9c-4.9-4.9-7.3-10.8-7.3-17.7s2.4-12.8,7.3-17.7c4.9-4.9,10.8-7.4,17.7-7.4h21h0.4V118v6.7
						h-21.4c-1.8,0-3.3,0.6-4.6,1.9c-1.3,1.2-1.9,2.8-1.9,4.5c0,1.8,0.7,3.3,1.9,4.6c1.3,1.3,2.8,1.9,4.6,1.9h21.4v18.6h-21.4
						C335.6,156.3,329.7,153.8,324.8,148.9z"/>
					<polygon class="st1" points="354.5,287.5 354.5,251.3 354.5,243.9 345.2,241.4 359.4,180.2 382.8,184.6 370.9,235 377.7,235 
						377.7,287.5 					"/>
					<polygon class="st1" points="307.8,287.3 277.7,244.7 296.3,231.5 326.7,272.7 					"/>
					<polygon class="st1" points="293.9,159 293.9,100.3 288.5,100.3 288.5,80.9 293.9,80.9 293.9,76.5 313.7,76.5 313.7,80.9 
						363.5,80.9 363.5,100.3 313.7,100.3 313.7,159 					"/>
					<polygon class="st1" points="259.8,104.6 237.5,84.4 249,72.2 271.3,92.5 					"/>
					<path class="st1" d="M247.8,328.4l-68.4-47.1l18-27.3h-7v-10.7v-55.1h-0.8h-22H167V141h-2.8h-8V93.1v-3.5V62.8H167v-8.3V51
						v-3.9h65.4l15.2-16l17.5,16h78v4.4H393v15.6l7.9-4.6c4.8-2.9,10.2-5.2,15.8-6.7c5.4-1.4,11.1-2.1,16.8-2.1
						c9.3,0,18.3,1.9,26.7,5.7v-7.6h21.8v-5.5h78.2v5.5h1.8V49h132.4v61.7v4v11.8c0,18.4-5.3,33.4-15.8,44.4
						c-0.1,0.1-0.1,0.2-0.2,0.3c-0.8,0.8-1.6,1.5-2.4,2.2c-1.7,1.6-3.4,3-5.3,4.3l-17.4,141.1l-62.6-7.7l-49.1,13.1l-6,5.1
						l-7.6-12.4L325,316.9v-5.8l-23.6,18.2l-27.8-39.4L247.8,328.4z M230.5,70.4v-8.6h-48.8v15.7h-10.9v48.8h10.9v47.2h64.1v12.1
						h-40.6v53.7h19.5l-25,38.1l44.3,30.4l29.4-43.9l31.3,44.3l35.2-27v21h52.6v-52.6l3.6,0.7v51.9h51.9v-16.4h10v9h20.4v7.4h48.8
						v-7.4h4.6l7.4,12l7.6-6.5l1.6,6.7l41.3-11l50.8,6.3l15.9-128.8l-10.2-1.3c8.8-1.8,16.1-5.6,21.6-11.3c7.9-8.3,12-19.9,12-34.5
						V63.7H576.7v2.7h-31.3V61h-48.8v5.5h-21.8v23.8c-4.3-6.4-9.9-11.5-16.5-15.3c-7.7-4.4-16.1-6.6-24.9-6.6c-4.4,0-8.8,0.6-13,1.7
						c-4.3,1.1-8.5,2.9-12.2,5.1l-29.6,17.2v-1.1h-0.4V66.2h-49.8v-4.4h-49.2v4.4h-5.5v8.6l-25.4-23.2L230.5,70.4z"/>
					<polygon class="st1" points="239.9,287.3 219.9,273.4 252,224.6 219.9,224.6 219.9,200.4 260.5,200.4 260.5,180.9 286,180.9 
						286,200.4 326.6,200.4 326.6,224.6 296.3,224.6 281.8,224.6 271.3,240.4 					"/>
					<path class="st1" d="M231.6,92.2c8.8,0,16,3,21.8,9c5.8,6,8.7,13.1,8.7,21.5v36.1h-1.6h-35.9v-19.2h18.1v-16.9
						c0-3.1-1-5.7-2.9-7.9c-1.9-2.2-4.7-3.3-8.1-3.3h-15.9v47.2h-19.3v-47.2h-10.9V92.2h10.9V76.5h19.3v15.7H231.6z"/>
				</g>
				<g>
				</g>
			</g>
		</g>
	</g>
	<g>
		<g>
			<path class="st2" d="M234.3,366.5l4-0.1l4.2-6.1l-1.3-3.6l-7.2-2.3c-1.8,1.7-3.2,3.7-4.2,6L234.3,366.5z"/>
			<path class="st2" d="M230.6,379.3c-0.9-1.1-1.6-2.4-2.2-3.6l-2.2-0.7c0.8,1.9,1.8,3.8,3.1,5.4c1.3,1.7,2.8,3.1,4.5,4.4l0-2.3
				C232.6,381.6,231.5,380.5,230.6,379.3z"/>
			<path class="st2" d="M255.6,350l2.2-0.7c-3.5-2.3-7.7-3.5-11.9-3.4l1.3,1.8C250.2,347.8,253.1,348.6,255.6,350z"/>
			<path class="st2" d="M232.6,352.9l0-2.3c-3.3,2.7-5.7,6.2-7,10.3l2.1-0.7C228.9,357.4,230.5,354.9,232.6,352.9z"/>
			<path class="st2" d="M234.7,368.5l-4.5,6.3c0.5,1.1,1.2,2.2,2,3.2c0.7,0.9,1.6,1.8,2.5,2.6l7.4-2.5l1.1-3.7l-4.7-6.1L234.7,368.5
				z"/>
			<path class="st2" d="M265.2,362.2c0.7,2.8,0.8,5.8,0.3,8.7l1.4,1.9c1.1-4.1,0.9-8.4-0.4-12.4L265.2,362.2z"/>
			<path class="st2" d="M251.8,361.6l2.9-2.2l-0.1-7.7c-2.2-1.2-4.6-1.9-7-2.1l-4.5,6.3l1.3,3.5L251.8,361.6z"/>
			<path class="st2" d="M256.1,360.8l-3,2.3l0.2,7.8l2.9,2l7.3-2.4c0.4-2.4,0.4-4.9-0.2-7.3L256.1,360.8z"/>
			<path class="st2" d="M248.7,386.8l-1.4,1.9c4.2-0.2,8.2-1.7,11.7-4.2l-2.1-0.7C254.4,385.4,251.6,386.4,248.7,386.8z"/>
			<path class="st2" d="M255.4,382.3l-0.1-7.6l-3.3-2.2l-7,2.5l-1.1,3.7l4.5,6.1C250.9,384.4,253.2,383.6,255.4,382.3z"/>
			<path class="st1" d="M283.4,374.5c-1.2,0.3-5.3,1-10.6,1.7c-1.3,4-3.5,7.7-6.6,10.7C278.1,381.1,285.5,374,283.4,374.5z"/>
			<path class="st1" d="M196.8,332.9l2,12c-0.7,0.9-1.2,1.9-1.4,3c0.9,0.5,1.7,1.2,2,1.5c0,0,0.1,0,0.1,0h14.4
				c0.7-0.6,2.6-2.1,4-2.3c-0.8-2.5-2.3-4.2-4.4-5.2l0.8-9c1.3-0.5,2.2-1.6,2.6-3.1c0.6-2.5-0.9-4.9-3.3-5.6
				c-2.5-0.6-4.9,0.9-5.6,3.3c-0.5,1.9,0.3,3.9,1.9,4.9l-0.7,8.2c-2.2-0.2-4.5,0.3-6.5,1.2l-1.6-9.8c1.1-0.8,1.8-2.1,1.8-3.6
				c0-2.5-2.1-4.6-4.6-4.6c-2.5,0-4.6,2.1-4.6,4.6C193.7,330.6,195,332.3,196.8,332.9z"/>
			<path class="st1" d="M220.7,357.8c-0.5-1.3-0.9-2.7-1.2-4c-0.7,2.1-2,4.4-4,6.9c-0.1,0.1-0.2,0.1-0.3,0.2
				c-0.3,0.3-0.7,0.5-1.1,0.5h-14.6c-0.4,0-0.8-0.2-1.1-0.5c-0.1,0-0.1,0-0.2,0c-0.1,0-0.3-0.1-0.4-0.2c-0.3-0.4-0.6-0.8-0.9-1.2
				c1,10.4,5.9,25.3,25.4,32.2c5.7,2,11.6,2.7,17.2,2.5c-5.1-1.4-9.7-4.1-13.3-8.1C218.9,378.2,217.2,367.2,220.7,357.8z"/>
			<path class="st1" d="M268.6,356.9c-0.8-1.7-1.8-3.3-2.9-4.8c-1.1-1.4-2.4-2.8-3.8-3.9c-5.2-4.3-12-6.3-18.6-5.5
				c-3.7,0.4-7.2,1.7-10.4,3.7c-0.7,0.4-1.3,0.9-1.9,1.3c-4.7,3.6-7.9,8.9-9.1,14.7c-0.7,3.6-0.6,7.4,0.3,11c0.8,3.3,2.3,6.3,4.4,9
				c2.1,2.6,4.6,4.8,7.5,6.4c3.2,1.8,6.9,2.9,10.6,3.1c6,0.4,11.9-1.5,16.7-5.1c0.5-0.4,1.1-0.9,1.6-1.4c2.8-2.5,4.8-5.6,6.2-9.1
				C271.6,370,271.4,363,268.6,356.9z M257.8,349.2l-2.2,0.7c-2.6-1.4-5.4-2.2-8.3-2.4l-1.3-1.8
				C250.2,345.7,254.3,346.9,257.8,349.2z M234,354.4l7.2,2.3l1.3,3.6l-4.2,6.1l-4,0.1l-4.5-6.1C230.8,358.1,232.2,356.1,234,354.4z
				 M232.6,350.6l0,2.3c-2.1,2-3.8,4.5-4.8,7.2l-2.1,0.7C226.9,356.8,229.3,353.3,232.6,350.6z M229.2,380.4
				c-1.3-1.7-2.3-3.5-3.1-5.4l2.2,0.7c0.6,1.3,1.4,2.5,2.2,3.6c0.9,1.2,2,2.3,3.1,3.2l0,2.3C232,383.5,230.5,382.1,229.2,380.4z
				 M242,378.2l-7.4,2.5c-0.9-0.8-1.7-1.6-2.5-2.6c-0.8-1-1.4-2.1-2-3.2l4.5-6.3l3.6-0.1l4.7,6.1L242,378.2z M247.6,349.6
				c2.5,0.2,4.9,0.9,7,2.1l0.1,7.7l-2.9,2.2l-7.5-2.2l-1.3-3.5L247.6,349.6z M244,378.7l1.1-3.7l7-2.5l3.3,2.2l0.1,7.6
				c-2.1,1.3-4.4,2.1-6.9,2.4L244,378.7z M247.3,388.7l1.4-1.9c2.9-0.4,5.7-1.4,8.1-3l2.1,0.7C255.5,387,251.5,388.5,247.3,388.7z
				 M263.5,370.5l-7.3,2.4l-2.9-2l-0.2-7.8l3-2.3l7.3,2.3C263.9,365.5,264,368.1,263.5,370.5z M266.9,372.8l-1.4-1.9
				c0.5-2.9,0.4-5.9-0.3-8.7l1.3-1.8C267.9,364.4,268,368.7,266.9,372.8z"/>
			<path class="st1" d="M214.1,360.3c0.2,0,0.4-0.2,0.4-0.5v-8.9c0-0.2-0.2-0.4-0.4-0.5v3.6c0,0.1,0,0.1,0,0.2c0,0,0,0,0,0.1v1.9
				c0,0,0,0,0,0.1c0,0.1,0,0.1,0,0.2V360.3z"/>
			<path class="st1" d="M215.5,350.9v7.9c2-2.7,3.1-5.2,3.4-7.4c-0.2-1-0.5-2-0.7-3c0-0.1-0.1-0.2-0.1-0.3c-0.7-0.1-2.1,0.8-3.1,1.6
				C215.3,350.1,215.5,350.5,215.5,350.9z"/>
			<path class="st1" d="M213.4,350.5h-13.1v3.2c0,0,0.1,0,0.1,0l6.3-0.9c0,0,0.1,0,0.1,0l6.7,1.1V350.5z"/>
			<path class="st1" d="M197.9,350.9c0-0.4,0.1-0.7,0.4-1c-0.4-0.3-0.8-0.6-1.3-0.9c-0.2,1.4-0.6,4.5-0.4,8.5
				c0.4,0.6,0.8,1.2,1.2,1.8V350.9z"/>
			<path class="st1" d="M199,350.9v8.9c0,0.3,0.2,0.5,0.5,0.5h0.2v-9.8h-0.2C199.2,350.5,199,350.7,199,350.9z"/>
			<path class="st1" d="M213.4,354.5l-6.7-1.1l-6.2,0.9c-0.1,0-0.1,0-0.2,0v1.6c0.1,0,0.1,0,0.2,0l7,1.1l5.9-0.9V354.5z"/>
			<path class="st1" d="M207.5,357.7l-7.1-1.1c0,0-0.1,0-0.1,0v3.8h13.1v-3.5l-5.8,0.9C207.5,357.7,207.5,357.7,207.5,357.7
				C207.5,357.7,207.5,357.7,207.5,357.7z"/>
		</g>
		<g>
			<path class="st1" d="M330.7,356c0,1.9-1.5,3.4-3.5,3.4c-0.6,0-1.2,0-3.1-1.6c-2.7-2.2-4.8-3-8-3c-4.6,0-6,2.4-6,4.4
				c0,3.1,2.1,4.1,9,6c9,2.6,11.9,6.3,11.9,11.6c0,7.8-7.1,11.8-14.1,11.8c-9.7,0-15.8-7.1-15.8-10.3c0-1.8,1.3-3.5,3.5-3.5
				c1.5,0,1.8,0.3,4,2.9c0.9,1,3.5,4,8.6,4c3.5,0,6.6-1.9,6.6-4.7c0-2.9-2.1-3.9-9.8-6.3c-8.1-2.5-11.2-6.2-11.2-11.5
				c0-6.6,5-11.1,13.2-11.1C322.3,348.3,330.7,352,330.7,356z"/>
			<path class="st1" d="M353.5,385.5c0,2.1-1.7,3.2-3.4,3.2c-2.6,0-3.4-2-3.4-3.1v-29.6h-8.5c-2,0-3.4-1.4-3.4-3.4
				c0-2.3,2.1-3.4,3.4-3.4H362c2.1,0,3.4,1.7,3.4,3.6c0,2.3-2.1,3.2-3.4,3.2h-8.5V385.5z"/>
			<path class="st1" d="M393.6,378.6h-15.1l-2.7,7.7c-0.9,2.5-2.6,2.5-3.3,2.5c-2.1,0-3.6-1.2-3.6-3.3c0-0.7,0.1-1.2,0.3-1.6
				l12.1-31.5c0.5-1.2,1.8-4,4.7-4c2,0,3.9,0.9,5.1,4l12,31.5c0.1,0.2,0.3,0.8,0.3,1.4c0,0.3-0.1,3.5-3.8,3.5
				c-1.8,0-2.7-1.3-3.1-2.6L393.6,378.6z M380.8,372h10.5l-5.3-15.1L380.8,372z"/>
			<path class="st1" d="M425.3,385.6c0,2.2-1.8,3.1-3.4,3.1c-2.6,0-3.4-2-3.4-3.1V372c-1-0.7-1-0.9-2-2.6l-9.7-16.6
				c-0.1-0.3-0.3-0.7-0.3-1.3c0-2.2,1.8-3.3,3.4-3.3c1.3,0,2.4,1,2.7,1.7l9.3,15.9l9.2-15.9c0.4-0.8,1.4-1.7,2.8-1.7
				c1.1,0,2,0.5,2.5,1.1c0.6,0.7,0.8,1.6,0.8,2.5c0,0.3-0.2,0.9-0.3,1.1l-9.7,16.6c-1,1.7-1,1.9-2,2.6V385.6z"/>
			<path class="st1" d="M495.7,356c0,1.9-1.5,3.4-3.5,3.4c-0.6,0-1.2,0-3.1-1.6c-2.6-2.2-4.8-3-8-3c-4.6,0-6,2.4-6,4.4
				c0,3.1,2.1,4.1,9,6c9,2.6,11.9,6.3,11.9,11.6c0,7.8-7.1,11.8-14.1,11.8c-9.7,0-15.8-7.1-15.8-10.3c0-1.8,1.3-3.5,3.5-3.5
				c1.5,0,1.8,0.3,4,2.9c0.9,1,3.5,4,8.6,4c3.5,0,6.6-1.9,6.6-4.7c0-2.9-2.1-3.9-9.8-6.3c-8.1-2.5-11.2-6.2-11.2-11.5
				c0-6.6,5-11.1,13.2-11.1C487.3,348.3,495.7,352,495.7,356z"/>
			<path class="st1" d="M524.5,378.6h-15.1l-2.7,7.7c-0.9,2.5-2.6,2.5-3.3,2.5c-2.1,0-3.6-1.2-3.6-3.3c0-0.7,0.1-1.2,0.3-1.6
				l12.1-31.5c0.5-1.2,1.8-4,4.7-4c2,0,3.9,0.9,5.1,4l12,31.5c0.1,0.2,0.3,0.8,0.3,1.4c0,0.3-0.1,3.5-3.8,3.5
				c-1.8,0-2.7-1.3-3.1-2.6L524.5,378.6z M511.7,372h10.5l-5.3-15.1L511.7,372z"/>
			<path class="st1" d="M546.8,385c0,3.1-2.3,3.7-3.4,3.7c-2.2,0-3.4-1.1-3.4-3.5v-30.4c0-2.9,1.4-5.7,5.2-5.7h16.6
				c1.1,0,3.7,0.3,3.7,3.5c0,2.6-1.9,3.3-3.5,3.3h-14.1c-0.8,0-1.1,0.6-1.1,1.5v7.6h13.7c2.1,0,3.2,1.6,3.2,3.3c0,2.5-1.7,3.2-3,3.2
				h-14V385z"/>
			<path class="st1" d="M591.9,364.6c2.2,0,3.2,1.8,3.2,3.4c0,3-2.6,3.2-3,3.2h-14v8.5c0,0.6,0.5,1.4,1.4,1.4h13.6
				c1.2,0,3.6,0.3,3.6,3.5c0,3.1-2.9,3.3-3.5,3.3h-16.7c-3.5,0-5.3-1.8-5.3-6.1v-26.8c0-2.8,1.4-5.7,5.2-5.7h16.6
				c1.1,0,3.7,0.3,3.7,3.5c0,2.7-2.3,3.3-3.5,3.3h-14c-0.9,0-1.1,0.7-1.1,1.5v7.1H591.9z"/>
			<path class="st1" d="M611.1,384.2c0,2.5-2.1,4.5-4.6,4.5c-2.5,0-4.5-2-4.5-4.5c0-2.6,2.1-4.5,4.5-4.5
				C609,379.7,611.1,381.7,611.1,384.2z M608.4,375.4c-0.1,1.4-0.7,2.3-1.9,2.3c-1.2,0-1.8-0.8-2-2.3l-2-21.2
				c-0.2-2.4,0.1-5.9,3.9-5.9c3.6,0,4.3,2.9,4,5.9L608.4,375.4z"/>
			<path class="st1" d="M627,384.2c0,2.5-2.1,4.5-4.6,4.5c-2.5,0-4.5-2-4.5-4.5c0-2.6,2.1-4.5,4.5-4.5
				C625,379.7,627,381.7,627,384.2z M624.4,375.4c-0.1,1.4-0.7,2.3-1.9,2.3c-1.2,0-1.8-0.8-2-2.3l-2-21.2c-0.2-2.4,0.1-5.9,3.9-5.9
				c3.6,0,4.3,2.9,4,5.9L624.4,375.4z"/>
		</g>
	</g>
</g>
</svg>
