<?xml version="1.0" encoding="utf-8"?><svg version="1.1" xmlns="http://www.w3.org/2000/svg" xmlns:xlink="http://www.w3.org/1999/xlink" x="0px" y="0px" viewBox="-29 -170 900 900" style="enable-background:new -29 -170 900 900;" xml:space="preserve"><path style="fill:#3AAE36" d="M733.2-104.7H108.8c-40,0-72.5,32.5-72.5,72.5v624.4c0,40,32.5,72.5,72.5,72.5h624.4c40,0,72.5-32.5,72.5-72.5 V-32.2C805.7-72.2,773.2-104.7,733.2-104.7z"/><path style="fill:#FFF" d="M733.2-119.7H108.8c-48.2,0-87.5,39.3-87.5,87.5v624.4c0,48.2,39.3,87.5,87.5,87.5h624.4 c48.2,0,87.5-39.3,87.5-87.5V-32.2C820.7-80.4,781.4-119.7,733.2-119.7z M805.7,592.2c0,40-32.5,72.5-72.5,72.5H108.8 c-40,0-72.5-32.5-72.5-72.5V-32.2c0-40,32.5-72.5,72.5-72.5h624.4c40,0,72.5,32.5,72.5,72.5V592.2z M422,58.8 c-132.6,0-240.5,84.9-240.5,189.2c0,93.5,85.6,171.9,201.1,186.7c7.8,1.6,18.5,5,21.2,11.5c2.4,5.9,1.6,15.1,0.8,21.1c0,0-2.8,16.5-3.4,20c-1.1,5.9-4.8,23,20.8,12.6c25.7-10.5,138.5-79.1,188.9-135.4c34.9-37.1,51.5-74.7,51.5-116.4C662.5,143.7,554.6,58.8,422,58.8z M327.9,310.1h-47.8c-6.9,0-12.6-5.5-12.6-12.2v-92.7c0-6.7,5.7-12.2,12.6-12.2s12.6,5.5,12.6,12.2v80.4h35.2c6.9,0,12.6,5.5,12.6,12.2C340.5,304.6,334.8,310.1,327.9,310.1z M377.3,297.9c0,6.7-5.7,12.2-12.6,12.2c-6.9,0-12.6-5.5-12.6-12.2v-92.7c0-6.7,5.7-12.2,12.6-12.2c6.9,0,12.6,5.5,12.6,12.2V297.9z M492.3,297.9c0,5.3-3.5,9.9-8.6,11.6c-1.3,0.4-2.6,0.6-4,0.6c-3.9,0-7.7-1.8-10.1-4.9l-49-64.7v57.3c0,6.7-5.6,12.2-12.6,12.2s-12.6-5.5-12.6-12.2v-92.7c0-5.3,3.5-9.9,8.6-11.6c1.3-0.4,2.7-0.6,4-0.6c3.9,0,7.7,1.8,10.1,4.9l49,64.7v-57.3c0-6.7,5.7-12.2,12.6-12.2c7,0,12.6,5.5,12.6,12.2V297.9L492.3,297.9z M569.6,239.3c6.9,0,12.6,5.5,12.6,12.2c0,6.7-5.7,12.2-12.6,12.2h-35.2v21.9h35.2c6.9,0,12.6,5.5,12.6,12.2s-5.7,12.2-12.6,12.2h-47.8c-6.9,0-12.6-5.5-12.6-12.2v-46.3l0,0v-46.3l0,0c0-6.7,5.7-12.2,12.6-12.2h47.8c6.9,0,12.6,5.5,12.6,12.2s-5.7,12.2-12.6,12.2h-35.2v21.9L569.6,239.3L569.6,239.3z"/></svg>