<?xml version="1.0" encoding="utf-8"?><svg version="1.1" xmlns="http://www.w3.org/2000/svg" xmlns:xlink="http://www.w3.org/1999/xlink" x="0px" y="0px"
	 viewBox="-29 -170 900 900" style="enable-background:new -29 -170 900 900;" xml:space="preserve"><path style="fill:#2FA6DF" d="M733.2-104.7H108.8c-40,0-72.5,32.5-72.5,72.5v624.4c0,40,32.5,72.5,72.5,72.5h624.4c40,0,72.5-32.5,72.5-72.5 V-32.2C805.7-72.2,773.2-104.7,733.2-104.7z"/><path style="fill:#FFF" d="M634.3,147.7c-15.7,7-32.6,11.7-50.3,13.8c18.1-10.8,32-28,38.5-48.4c-16.9,10-35.6,17.3-55.6,21.3 c-16-17-38.7-27.7-63.9-27.7c-48.3,0-87.5,39.2-87.5,87.5c0,6.9,0.8,13.5,2.3,19.9c-72.7-3.6-137.2-38.5-180.4-91.5 c-7.5,12.9-11.8,28-11.8,44c0,30.4,15.4,57.2,38.9,72.8c-14.3-0.5-27.8-4.4-39.6-10.9v1.1c0,42.4,30.2,77.8,70.2,85.8 c-7.3,2-15.1,3.1-23.1,3.1c-5.6,0-11.1-0.6-16.5-1.6c11.1,34.8,43.5,60.1,81.8,60.8c-29.9,23.5-67.7,37.5-108.7,37.5 c-7.1,0-14-0.4-20.9-1.2c38.7,24.8,84.7,39.3,134.2,39.3c161,0,249-133.4,249-249c0-3.8-0.1-7.6-0.2-11.3 C607.7,180.7,622.6,165.2,634.3,147.7z M733.2-119.7H108.8c-48.2,0-87.5,39.3-87.5,87.5v624.4c0,48.2,39.3,87.5,87.5,87.5h624.4 c48.2,0,87.5-39.3,87.5-87.5V-32.2C820.7-80.4,781.4-119.7,733.2-119.7z M805.7,592.2c0,40-32.5,72.5-72.5,72.5H108.8 c-40,0-72.5-32.5-72.5-72.5V-32.2c0-40,32.5-72.5,72.5-72.5h624.4c40,0,72.5,32.5,72.5,72.5V592.2z"/></svg>