<?xml version="1.0" encoding="utf-8"?><svg version="1.1" xmlns="http://www.w3.org/2000/svg" xmlns:xlink="http://www.w3.org/1999/xlink" x="0px" y="0px" viewBox="-29 -170 900 900" style="enable-background:new -29 -170 900 900;" xml:space="preserve"><path style="fill:#FFF" d="M643,132v314.5H199V132l222,194.2L643,132z M621.9,113.5H220.1L421,289.3L621.9,113.5z M733.2,679.7H108.8 c-48.2,0-87.5-39.3-87.5-87.5V-32.2c0-48.2,39.3-87.5,87.5-87.5h624.4c48.2,0,87.5,39.3,87.5,87.5v624.4 C820.7,640.4,781.4,679.7,733.2,679.7z M108.8-104.7c-40,0-72.5,32.5-72.5,72.5v624.4c0,40,32.5,72.5,72.5,72.5h624.4 c40,0,72.5-32.5,72.5-72.5V-32.2c0-40-32.5-72.5-72.5-72.5H108.8z"/></svg>