<?xml version="1.0" encoding="utf-8"?><svg version="1.1" xmlns="http://www.w3.org/2000/svg" xmlns:xlink="http://www.w3.org/1999/xlink" x="0px" y="0px" viewBox="-54 162 850.4 237" style="enable-background:new -54 162 850.4 237;" xml:space="preserve"><path style="fill:#FFF" d="M101.7,202c0,2.1-1.7,3.8-3.8,3.8c-2.1,0-3.8-1.7-3.8-3.8s1.8-3.8,3.8-3.8C100,198.2,101.7,199.8,101.7,202z M144.1,224.2c-3.4,0-6.7-1-8.9-4.5c-1.1,0.9-6.3,5.1-7.7,5.1c-0.7,0-1.5-0.7-1.5-1.6c0-0.8,0.3-1,2.9-2.7c0.4-0.2,2.5-1.6,5.1-3.8 c-0.1-0.2-0.1-0.4-0.1-0.7v-10.9c0-1.1-0.1-2.2-1.9-2.2h-3.7c-1.2,0-2.6,0-2.6-1.6c0-1.5,1.4-1.5,2.6-1.5h5.7c1.1,0,3.2,0.8,3.2,3.5 v12.3c0,2.3,1.8,4.1,3.3,4.8c0.8,0.4,1.9,0.9,5.4,0.9h23.3c1.2,0,2.5,0,2.5,1.5s-1.4,1.5-2.5,1.5h-25.1L144.1,224.2L144.1,224.2z M136.8,189c0,0.8-0.7,1.6-1.7,1.6c-0.8,0-1-0.3-2.9-2.8c-1.2-1.5-4-4.5-4.9-5.4c-0.6-0.6-0.6-1-0.6-1.1c0-1.2,1.2-1.8,1.9-1.6 C129.9,180.2,136.8,187.6,136.8,189z M142.8,183.7c-1.1,0-1.7,0.7-1.7,1.7v3.7c0,1.1,0,2.5-1.5,2.5s-1.5-1.4-1.5-2.5V184 c0-2.1,1.4-3.1,3.4-3.1h25.8c1.8,0,3.4,0.9,3.4,3.1v4.2c0,1.1,0,2.5-1.5,2.5s-1.5-1.3-1.5-2.5v-2.8c0-1.1-0.6-1.7-1.7-1.7 L142.8,183.7L142.8,183.7z M156,217.1c0,1.2,0,2.8-1.7,2.8s-1.7-1.5-1.7-2.8v-1.2H142c-1.1,0-2.5,0-2.5-1.5s1.4-1.5,2.5-1.5h10.6v-3 h-7.9c-2.7,0-4.4-1.6-4.4-4.1v-8.1c0-2.4,1.5-4.2,4.4-4.2h7.9v-3.2h-7.8c-1,0-2.3,0-2.3-1.4s1.3-1.4,2.3-1.4h7.8 c0-1.8,0-3.2,1.7-3.2s1.7,1.4,1.7,3.2h7.9c1,0,2.3,0,2.3,1.4s-1.3,1.4-2.3,1.4h-7.9v3.2h8.3c2.7,0,4.5,1.6,4.5,4.2v8.1 c0,2.4-1.6,4.1-4.5,4.1h-8.3v3h13.3c1.1,0,2.4,0,2.4,1.5s-1.3,1.5-2.4,1.5h-13.3L156,217.1L156,217.1z M152.6,196.4h-7.2 c-1.6,0-2.1,1.1-2.1,2.2v1.6h9.3L152.6,196.4L152.6,196.4z M152.6,203h-9.3v1.7c0,1.1,0.5,2.2,2.1,2.2h7.2L152.6,203L152.6,203z M156,200.1h9.7v-1.6c0-1.1-0.5-2.2-2.1-2.2H156V200.1L156,200.1z M156,206.9h7.6c1.6,0,2.1-1.1,2.1-2.2V203H156V206.9L156,206.9z M190,214.9h7.9c1.2,0,2.8,0,2.8,1.7c0,1.7-1.5,1.7-2.8,1.7H190v4.2c0,1.2,0,2.7-1.6,2.7s-1.6-1.5-1.6-2.7v-4.2h-8.2 c-1.2,0-2.8,0-2.8-1.7c0-1.7,1.5-1.7,2.8-1.7h8.2v-3.7h-4.9c-2.3,0-4-1.8-4-3.5v-13.8c0-1.6,1.6-3.5,4-3.5h4.9v-3.9H179 c-1.1,0-2.5,0-2.5-1.5s1.4-1.5,2.5-1.5h7.8v-1.7c0-1.2,0-2.7,1.6-2.7c1.7,0,1.7,1.5,1.7,2.7v1.7h7.5c1.1,0,2.5,0,2.5,1.5 s-1.4,1.5-2.5,1.5h-7.5v3.9h4.9c2.3,0,4.1,1.7,4.1,3.5v13.8c0,1.6-1.6,3.5-4.1,3.5h-4.9L190,214.9L190,214.9z M186.8,199.2v-5.9 h-3.9c-1.2,0-1.7,1-1.7,1.6v4.3H186.8L186.8,199.2z M181.1,202.1v4.4c0,0.9,0.7,1.6,1.7,1.6h3.9v-6H181.1z M195.6,199.2V195 c0-0.9-0.7-1.7-1.8-1.7H190v5.9H195.6z M190,202.1v6h3.9c1.3,0,1.8-1,1.8-1.6v-4.4H190z M202.6,199.8c-1.2,0-2.7,0-2.7-1.6 c0-1.7,1.5-1.7,2.7-1.7h16.9c1.2,0,2.7,0,2.7,1.6c0,1.7-1.5,1.7-2.7,1.7h-8.8c-0.7,5.9-2.3,13.9-4.4,19.8c5-0.8,5.8-0.9,10.9-2 c-0.2-1-1.2-4.6-2.8-8.7c-0.5-1.3-0.6-1.5-0.6-1.9c0-0.5,0.4-1.5,1.7-1.5c1.2,0,1.5,0.6,2,1.9c2,5.6,4.6,14.1,4.6,16.1 c0,1.2-0.8,1.8-1.8,1.8c-0.7,0-1.3-0.3-1.6-1.4c-0.2-0.5-0.7-2.8-0.8-3.3c-10.7,2.2-16.8,3.1-17.6,3.1c-1.2,0-1.7-1-1.7-1.7 c0-1.6,1.1-1.7,3.6-2c2.7-7.5,4-14.1,4.8-20.4h-4.4L202.6,199.8L202.6,199.8z M218.5,180.9c1.2,0,2.7,0,2.7,1.7 c0,1.6-1.5,1.6-2.7,1.6h-15.2c-1.2,0-2.7,0-2.7-1.6c0-1.7,1.5-1.7,2.7-1.7H218.5z M267.6,194.1c1.3,0,2.9,0,2.9,1.7 c0,1.7-1.6,1.7-2.9,1.7h-14.5c0.6,2.7,0.9,5.3,1.2,8.2h15.4c1.2,0,2.8,0,2.8,1.6c0,1.7-1.5,1.7-2.8,1.7h-15.2c0.1,1.4,0.1,3,0.1,4.4 c0,8.3-2,9.7-3.5,10.7c-1.2,0.8-2.6,1.3-4.3,1.3c-1.7,0-6-0.6-8.9-2c-0.6-0.3-1.1-0.8-1.1-1.5c0-0.9,0.7-1.7,1.7-1.7 c0.5,0,3.2,0.8,5.1,1.3c0.6,0.2,1.5,0.4,2.4,0.4c3.9,0,5.1-2.1,5.1-9.2c0-1.1-0.1-2.6-0.2-3.7h-21.6c-1.2,0-2.7,0-2.7-1.6 c0-1.7,1.5-1.7,2.7-1.7h21.4c-0.3-4.2-0.8-6.6-1.1-8.2h-18.1c-1.3,0-2.9,0-2.9-1.7c0-1.7,1.6-1.7,2.9-1.7h17.4 c-0.6-2.5-1.3-5-2.2-7.3c-2.5,0.3-7.9,0.8-16.2,0.8c-1.9,0-1.9-1.6-1.9-1.7c0-1.8,1.7-1.8,3.1-1.8c15.2,0,25.1-2.1,31.7-3.9 c0.6-0.2,3.2-1.1,3.7-1.1c1.3,0,1.5,1.3,1.5,1.6c0,1-0.9,1.5-2,1.8c-5.4,1.8-10.9,3.1-16.5,3.9c1.1,3.2,1.5,5,2.2,7.8h15.3V194.1z M285.9,211.9c0.3-0.8,0.7-1.6,1.7-1.6s1.7,0.8,1.7,1.6c0,0.6-1,2.8-1.1,3.2c-0.8,2.5-0.9,3.8-1.1,6.1c-0.1,0.5-0.2,2.7-2.1,2.7 c-4.4,0-4.9-16.9-4.9-21.1c0-11.2,2.2-18.8,2.8-20.8c0.2-0.5,0.6-1.5,1.8-1.5c1.3,0,2,0.9,2,1.9c0,0.6-0.9,3.7-1,4.2 c-1.2,4.2-2,9.4-2,16.9c0,3.5,0.2,8.1,1,12.9C285,214.2,285.5,212.7,285.9,211.9z M309.1,183.8c-0.1-1.6-0.1-3.4,1.8-3.4 c1.8,0,1.8,1.5,1.9,3.3l0.3,7.4l5.9-0.2c1.5-0.1,3.4-0.1,3.4,1.9c0,1.9-1.7,1.9-3.2,2l-6,0.2l0.4,14.6c5.3,2.6,9.2,6.8,9.2,8.5 c0,1.1-0.7,1.9-1.9,1.9c-0.8,0-0.9-0.1-2.7-2.3c-1.9-2.2-3-3.1-4.7-4.2c-0.3,2.9-0.8,10.1-10,10.1c-7.5,0-10.8-4.6-10.8-9.3 c0-4.9,3.7-8.4,9.4-8.4c3.3,0,6.2,1.2,7.9,1.8l-0.5-12.7l-14.4,0.4c-1.6,0.1-3.4,0.1-3.4-1.9c0-1.8,1.7-1.9,3.3-1.9l14.4-0.4 L309.1,183.8z M302.1,209.4c-3.8,0-5.9,2.3-5.9,5c0,3.7,3.6,5.8,7.1,5.8c4.9,0,6.9-3.3,6.5-8.4C307.6,210.2,305,209.4,302.1,209.4z M337,198.5h-6.4c-1.2,0-2.7,0-2.7-1.6s1.5-1.7,2.7-1.7h6.4v-8.5h-0.3c-2.2,2.8-6.1,6.3-7.4,6.3c-0.9,0-1.7-0.6-1.7-1.7 c0-0.8,0.2-1,2.1-2.4c4.1-3.2,6.3-6.6,7.1-7.9c1.6-2.6,1.8-2.9,2.7-2.9c1.1,0,1.6,0.9,1.6,1.5c0,1.1-1.6,3.5-1.9,3.9h31 c1.2,0,2.7,0,2.7,1.7c0,1.6-1.5,1.6-2.7,1.6h-4.9v8.4h6.4c1.2,0,2.7,0.1,2.7,1.7s-1.5,1.6-2.7,1.6h-6.4v8.5h4.8c1.2,0,2.6,0,2.6,1.6 s-1.4,1.6-2.6,1.6h-37.6c-1.2,0-2.6,0-2.6-1.6s1.4-1.6,2.6-1.6h4.6L337,198.5L337,198.5L337,198.5z M329.5,225.5 c-0.7,0-1.6-0.6-1.6-1.6c0-0.6,0.3-0.9,2.5-2.7c2.1-1.7,4.3-4.2,6.1-7.9c0.5-1,0.7-1.5,1.7-1.5c1.1,0,1.6,1,1.6,1.3 C339.8,216.4,332,225.5,329.5,225.5z M340.3,195.2h4.8v-8.5h-4.8V195.2z M340.3,207h4.8v-8.5h-4.8V207z M348.7,225.3 c-1.2,0-1.5-0.8-2.3-4.1c-0.2-0.8-1.3-4.1-1.7-5.1c-0.3-0.6-1.2-2.6-1.2-3.1c0-0.8,0.6-1.6,1.6-1.6c0.8,0,1.4,0.3,2.6,3.5 c0.5,1.3,2.2,5.7,2.5,8.4C350.5,224.9,349.2,225.3,348.7,225.3z M348.5,186.8v8.4h5v-8.5h-5V186.8z M348.5,198.5v8.5h5v-8.5H348.5z M360.5,225.6c-1.2,0-1.3-0.4-2.7-4.1c-0.8-2-2.1-4.2-3.6-6.7c-0.5-0.8-0.7-1.1-0.7-1.6c0-0.7,0.7-1.6,1.6-1.6 c1.3,0,3.1,3.3,4.3,5.5c0.7,1.4,2.9,5.8,2.8,7C362,224.8,361.5,225.6,360.5,225.6z M356.8,186.8v8.4h5.1v-8.5h-5.1V186.8z M356.8,198.5v8.5h5.1v-8.5H356.8z M372.3,225.5c-1,0-1.2-0.4-2.9-3.7c-1.1-2.2-3.6-5.4-5.3-7.6c-0.3-0.3-0.4-0.7-0.4-1 c0-0.8,0.6-1.6,1.6-1.6c1.1,0,3.7,3.7,4.9,5.3c1,1.4,3.8,5.8,3.8,7.1C374,224.5,373.3,225.5,372.3,225.5z M388.8,197.1h2.3 c1.2,0,2.7,0,2.7,1.6c0,1.7-1.5,1.7-2.7,1.7h-2.3v13.1c0.6-0.3,3.3-1.6,3.8-1.6s1.6,0.6,1.6,1.7c0,0.9-0.3,1.5-4.5,3.2 c-2.7,1.1-9.2,3.6-10.3,3.6s-1.7-0.9-1.7-1.7c0-0.6,0.3-1.2,0.9-1.5c0.4-0.2,5.7-1.8,6.7-2.2v-14.6H381c-1.2,0-2.7,0-2.7-1.6 c0-1.7,1.5-1.7,2.7-1.7h4.3v-12.2h-4.7c-1.2,0-2.8,0-2.8-1.6c0-1.7,1.5-1.7,2.8-1.7h11.1c1.2,0,2.8,0.1,2.8,1.7 c0,1.7-1.5,1.7-2.8,1.7h-2.9V197.1z M411.2,210.7h9.8c1.2,0,2.7,0.1,2.7,1.6c0,1.6-1.5,1.6-2.7,1.6h-9.8v6.8h10.7 c1.2,0,2.8,0,2.8,1.7c0,1.7-1.5,1.7-2.8,1.7h-26.3c-1.3,0-2.8,0-2.8-1.7c0-1.7,1.5-1.7,2.8-1.7h12.1v-6.8h-9.6c-1.2,0-2.7,0-2.7-1.6 s1.5-1.7,2.7-1.7h9.6v-5.1h-6.9c-1.3,0-4.7,0-4.7-3.7V184c0-3.7,3.4-3.7,4.7-3.7H418c1.3,0,4.7,0,4.7,3.7v17.9 c0,3.7-3.4,3.7-4.7,3.7h-6.8V210.7L411.2,210.7z M407.7,191.1v-7.3h-6.4c-1.3,0-1.6,0.8-1.6,1.8v5.5H407.7z M399.7,194.3v6.1 c0,1,0.3,1.9,1.6,1.9h6.4v-8H399.7z M419.3,191.1v-5.5c0-1-0.3-1.8-1.6-1.8h-6.5v7.3H419.3z M411.2,194.3v8h6.5 c1.3,0,1.6-0.9,1.6-1.9v-6.1H411.2z M444.3,198.1c1.2-0.8,2.9-1.8,5.9-1.8c1.1,0,5.6,0,7,5.8c1.1-0.5,11.1-4.8,12.4-4.8 s1.9,1.1,1.9,1.9c0,1.4-1.1,1.8-3.4,2.6c-3.3,1.2-8.2,2.9-10.2,3.8c0.2,1.4,0.2,3.1,0.2,4.6c0,2.7,0,4.4-1.9,4.4 c-0.4,0-1.8-0.2-1.8-2.1v-5.1c-2.3,1.3-8.2,4.5-8.2,7.8c0,4.9,8.2,4.9,10.1,4.9c0.8,0,4.6,0,8.2-0.8c0.6-0.1,1.8-0.4,2.2-0.4 c1.3,0,1.8,0.9,1.8,1.7c0,1.4-1.1,1.8-1.6,1.9c-0.8,0.3-4.9,1.1-10.8,1.1c-1.5,0-6.4,0-9.7-1.9c-1-0.6-3.9-2.6-3.9-6.1 c0-5.7,7.2-9.6,11.5-11.8c-0.3-1.3-0.9-4.1-4.7-4.1c-2.9,0-6,1-11.9,7c-2.9,2.9-3.2,3.3-3.9,3.3c-1.2,0-2-0.9-2-2 c0-0.8,0.3-1.3,2.4-3.4c2.4-2.3,6.8-6.7,9.9-12.7c-2.7,0.1-4.2,0.1-7.1,0.1c-1.8,0-3.5,0-3.5-1.8c0-1.9,1.2-1.9,4-1.9 c1.3,0,7.1,0.1,8.4,0.1c1.3-2.7,1.4-3.3,2.6-6.9c0.3-0.7,0.6-1.8,2-1.8c1.1,0,1.8,0.9,1.8,1.7c0,1.3-1.7,5.2-2.3,6.8 c4.7-0.2,6.5-0.3,8.8-0.5c1.4-0.2,3.6-0.6,5-0.6c1.5,0,1.5,1.5,1.5,1.7c0,1.6-1.3,1.9-3.4,2.1c-3.9,0.4-9.8,0.7-13.6,0.8 C445.7,195.9,445.2,196.6,444.3,198.1z M500,219.4c6,0,15.6-3.9,19.4-11.9c1.1-2.2,1.3-2.6,2.4-2.6c1.1,0,1.8,0.8,1.8,1.9 c0,1.5-2.3,5.6-5.2,8.4c-4.2,4.1-11,7.7-18.3,7.7c-12.6,0-12.6-9-12.6-15.3c0-8.6,0.4-15.5,0.8-22.7c0.2-2.8,0.2-4.1,2.1-4.1 c0.6,0,2,0.3,2,2.2c0,0.4-0.6,7-0.7,8.3c-0.6,8.4-0.7,14-0.7,16.3C491,213.2,491.3,219.4,500,219.4z M537.7,207.8 c-2.6,4.2-3.1,4.2-4,4.2c-1.4,0-1.9-1.1-1.9-1.9c0-0.3,0.1-0.7,0.9-1.7c2.6-3.3,6-9.3,8.2-16.1c-1.1,0.1-6.1,0.4-6.6,0.4 c-0.7,0-2.4,0-2.4-1.8c0-1,0.7-1.6,1.2-1.8c0.7-0.2,7.3-0.3,8.8-0.4c0.6-2.3,0.6-2.7,1.2-6.7c0.3-1.8,1.5-1.8,2-1.8 c0.2,0,1.9,0.1,1.9,2c0,1.2-0.9,5-1.2,6.3c2.2-0.2,4.3-0.4,5.5-0.6c0.3-0.1,0.9-0.1,1.2-0.1c1.2,0,2,0.8,2,1.9 c0,0.8-0.4,1.5-1.1,1.7c-0.9,0.3-7.1,0.7-8.6,0.8C543.8,194.7,542.2,200.6,537.7,207.8z M559.5,199.4c-0.1-1-0.1-1.2-0.1-1.4 c0-1.8,1.3-2.1,1.9-2.1c1.9,0,2,1.7,2,3.3l0.4,9.4c2.1,1,9,4.7,9,6.9c0,0.7-0.5,2-1.9,2c-0.7,0-0.9-0.2-2.8-1.8 c-2.2-1.9-3.2-2.5-4.3-3c0.1,0.9,0.1,1.3,0.1,1.9c0,2,0,9.1-9.9,9.1c-6.9,0-10.7-4.1-10.7-8.9c0-5.3,4.6-8.8,10.3-8.8 c2.2,0,4.3,0.5,6.7,1.3L559.5,199.4z M553.5,209.4c-3.9,0-6.5,2.1-6.5,5.2c0,3.3,2.8,5.4,7,5.4c3.8,0,6.5-2.1,6.5-6.3 c0-0.9-0.1-1.7-0.3-2.5C558,209.7,554.8,209.4,553.5,209.4z M572.2,191.4c2,1.5,2.9,2.3,2.9,3.4c0,1-0.7,1.8-1.8,1.8s-3-2.1-4.7-3.2 c-3.4-2.3-4.5-2.9-8.5-4.8c-0.6-0.3-1.5-0.7-1.5-1.9c0-1.1,0.8-1.8,1.9-1.8C561.8,184.8,567.8,188.1,572.2,191.4z M589.3,189 c-0.8,3.2-1.5,6.7-1.5,11.4c0,11.7,4.5,17.4,7.5,17.4c1.9,0,2.8-1.2,4.3-3.9c1.1-1.9,1.2-2.1,2.2-2.1c0.9,0,1.7,0.6,1.7,1.8 c0,1.4-3.3,8-8.5,8c-5.7,0-11-8.1-11-21.3c0-2.6,0.2-9.5,2.5-16.2c0.6-1.7,1.1-2,2-2s2.4,0.6,1.9,2.4 C590.2,185.7,589.5,187.9,589.3,189z M624.3,208.3c0,5.5-0.7,7-2.5,7c-1.3,0-2-1-2-1.9c0-0.3,0.1-0.7,0.1-1c0.1-0.6,0.5-2.7,0.5-5 c0-4.3-1.5-11.5-6-15.5c-0.5-0.5-3-2.2-3.3-2.7c-0.1-0.3-0.3-0.6-0.3-1c0-1.4,1.3-2.1,2.2-1.9C615.7,187.1,624.3,194,624.3,208.3z M648.3,216.4c0,4.3-3.3,7.7-7.5,7.7s-7.5-3.4-7.5-7.7c0-4.3,3.3-7.7,7.5-7.7S648.3,212.2,648.3,216.4z M636,216.4 c0,2.8,2.2,5.1,4.9,5.1c2.8,0,5-2.3,5-5.1c0-2.7-2.2-5.1-5-5.1C638.2,211.3,636,213.6,636,216.4z M76.4,280.7c0,2.1-1.7,3.8-3.8,3.8 c-2.1,0-3.8-1.7-3.8-3.8s1.8-3.8,3.8-3.8C74.7,276.9,76.4,278.6,76.4,280.7z M101.9,263.4c0-1.6,0.7-3.9,4.3-3.9h32.8 c3.4,0,4.9,1.3,4.9,4.5v34.9c0,1.6,0,4.9-5.3,4.9c-2.2,0-6.8-0.4-8.6-1c-0.4-0.1-1.4-0.5-1.4-1.7c0-0.6,0.5-1.7,1.7-1.7 c0.5,0,2.7,0.5,2.9,0.5c1.6,0.3,3.3,0.4,4.9,0.4c2.2,0,2.3-0.8,2.3-2.1v-33.1c0-1.2,0-2.2-2-2.2h-31.6c-1.5,0-1.5,0.8-1.5,1.4v36.9 c0,1.2,0,2.8-1.7,2.8s-1.7-1.5-1.7-2.8L101.9,263.4L101.9,263.4z M134.5,268.4c1.4,0,2.8,0,2.8,1.7s-1.4,1.7-2.8,1.7H111 c-1.4,0-2.8,0-2.8-1.7s1.4-1.7,2.8-1.7H134.5z M131.5,276.7c2.7,0,3.8,1.5,3.8,3.7v8.6c0,2.4-1.3,3.7-3.8,3.7H114 c-2.7,0-3.9-1.5-3.9-3.7v-8.6c0-2.4,1.4-3.7,3.9-3.7H131.5z M115,280.1c-1.4,0-1.7,0.6-1.7,1.6v6c0,1.6,0.9,1.6,1.7,1.6h15.4 c1.5,0,1.7-0.6,1.7-1.6v-6c0-1.6-1-1.6-1.7-1.6H115z M175.4,301c0,1.3,0,2.8-1.7,2.8s-1.7-1.6-1.7-2.8v-11.9 c-6.5,9.3-18.9,13.7-20.5,13.7c-1,0-1.5-0.8-1.5-1.5c0-1.1,0.5-1.3,2.4-1.9c4.4-1.6,11.8-5.1,15.9-10.5H155c-1.2,0-2.6,0-2.6-1.6 s1.4-1.6,2.6-1.6h5.3v-6h-7.2c-1.1,0-2.6,0-2.6-1.5s1.4-1.5,2.6-1.5h7.2v-6.1h-5.5c-1.1,0-2.5,0-2.5-1.5s1.3-1.5,2.5-1.5h17v-4.4 c-3.8,0.2-10.8,0.5-14.2,0.5c-0.4,0-2,0-2-1.6c0-1.7,1.6-1.7,2.6-1.7c8.9,0,16.7-0.4,22.7-0.9c1.3-0.1,7.6-0.8,8.5-0.8 c1.8,0,1.8,1.4,1.8,1.6c0,1.5-1.4,1.6-1.9,1.6c-5.2,0.4-5.3,0.5-14.2,1v4.5h17.2c1.1,0,2.5,0,2.5,1.5s-1.4,1.5-2.5,1.5h-5.7v6.1h7.1 c1.2,0,2.6,0,2.6,1.5s-1.4,1.5-2.6,1.5h-7.1v6h5.5c1.2,0,2.7,0,2.7,1.6s-1.5,1.6-2.7,1.6h-13.2c3.1,4.2,9,8.4,16.6,10.7 c1,0.3,1.7,0.5,1.7,1.6c0,0.7-0.5,1.6-1.6,1.6c-1.4,0-14-3.5-20.5-13.8V301L175.4,301L175.4,301z M172,270.5h-8.2v6.1h8.2V270.5z M172,279.6h-8.2v6h8.2V279.6z M183.5,270.5h-8.2v6.1h8.2V270.5z M183.5,279.6h-8.2v6h8.2V279.6z M211.8,285.4 c-1.8,0.8-8.8,3.5-10.1,3.5c-1.2,0-1.7-1-1.7-1.7c0-1.1,0.5-1.3,2.5-2c12.4-4.3,18.5-7.8,22-9.9h-19.8c-1.3,0-2.8,0-2.8-1.7 s1.6-1.7,2.8-1.7H221v-5.2h-12.2c-1.3,0-2.8,0-2.8-1.7s1.6-1.7,2.8-1.7H221v-3.1c0-1.3,0-2.9,1.8-2.9c1.7,0,1.7,1.6,1.7,2.9v3.3h7.9 c1.3,0,2.8,0,2.8,1.7s-1.6,1.7-2.8,1.7h-7.9v5.2h5c2.9-2.1,7.8-6.1,11.2-9.9c1.9-2.2,2.2-2.4,2.8-2.4c1.2,0,1.8,1,1.8,1.7 c0,1.1-5.7,7.1-10,10.6h9.1c1.3,0,2.8,0,2.8,1.7s-1.6,1.7-2.8,1.7h-13.8c-3.2,2.2-4.8,3-7.9,4.8h15.1c2.1,0,4.2,0.7,4.2,3.9v14.7 c0,3.1-2,3.9-4.2,3.9h-22c-2,0-4.2-0.7-4.2-3.9L211.8,285.4L211.8,285.4z M238.8,289.6v-4.3c0-0.7,0-1.9-1.8-1.9h-19.9 c-1.9,0-1.9,1.2-1.9,1.9v4.3H238.8z M215.1,292.8v4.9c0,0.7,0,1.9,1.9,1.9h19.9c1.8,0,1.8-1.2,1.8-1.9v-4.9H215.1z M260.5,290.6 c0.3-0.8,0.7-1.6,1.7-1.6s1.7,0.8,1.7,1.6c0,0.6-1,2.8-1.1,3.2c-0.8,2.5-0.9,3.8-1.1,6.1c-0.1,0.5-0.2,2.7-2.1,2.7 c-4.4,0-4.9-16.9-4.9-21.1c0-11.2,2.2-18.8,2.8-20.8c0.2-0.5,0.6-1.5,1.8-1.5c1.3,0,2,0.9,2,1.9c0,0.6-0.9,3.7-1,4.2 c-1.2,4.2-2,9.4-2,16.9c0,3.5,0.2,8.1,1,12.9C259.8,293,260.3,291.4,260.5,290.6z M283.8,262.5c-0.1-1.6-0.1-3.4,1.8-3.4 c1.8,0,1.8,1.5,1.9,3.3l0.3,7.4l5.9-0.2c1.5-0.1,3.4-0.1,3.4,1.9c0,1.9-1.7,1.9-3.2,2l-6,0.2l0.4,14.6c5.3,2.6,9.2,6.8,9.2,8.5 c0,1.1-0.7,1.9-1.9,1.9c-0.8,0-0.9-0.1-2.7-2.3c-1.9-2.2-3-3.1-4.7-4.2c-0.3,2.9-0.8,10.1-10,10.1c-7.5,0-10.8-4.6-10.8-9.3 c0-4.9,3.7-8.4,9.4-8.4c3.3,0,6.2,1.2,7.9,1.8l-0.5-12.7l-14.4,0.5c-1.6,0.1-3.4,0.1-3.4-1.9c0-1.8,1.7-1.9,3.3-1.9L284,270 L283.8,262.5z M276.9,288.2c-3.8,0-5.9,2.3-5.9,5c0,3.7,3.6,5.8,7.1,5.8c4.9,0,6.9-3.3,6.5-8.4C282.4,288.9,279.5,288.2,276.9,288.2 z M311.8,277.3h-6.4c-1.2,0-2.7,0-2.7-1.6s1.5-1.7,2.7-1.7h6.4v-8.5h-0.3c-2.2,2.8-6.1,6.3-7.4,6.3c-0.9,0-1.7-0.6-1.7-1.7 c0-0.8,0.2-1,2.1-2.4c4.1-3.2,6.3-6.6,7.1-7.9c1.6-2.6,1.8-2.9,2.7-2.9c1.1,0,1.6,0.9,1.6,1.5c0,1.1-1.6,3.5-1.9,3.9h31 c1.2,0,2.7,0,2.7,1.7c0,1.6-1.5,1.6-2.7,1.6h-4.9v8.5h6.4c1.2,0,2.7,0.1,2.7,1.7s-1.5,1.6-2.7,1.6h-6.4v8.5h4.8c1.2,0,2.6,0,2.6,1.6 s-1.4,1.6-2.6,1.6h-37.6c-1.2,0-2.6,0-2.6-1.6s1.4-1.6,2.6-1.6h4.6v-8.6H311.8z M304.1,304.3c-0.7,0-1.6-0.6-1.6-1.6 c0-0.6,0.3-0.9,2.5-2.7c2.1-1.7,4.3-4.2,6.1-7.9c0.5-1,0.7-1.5,1.7-1.5c1.1,0,1.6,1,1.6,1.3C314.5,295.2,306.8,304.3,304.1,304.3z M315,274h4.8v-8.5H315V274z M315,285.7h4.8v-8.5H315V285.7z M323.4,304.1c-1.2,0-1.5-0.8-2.3-4.1c-0.2-0.8-1.3-4.1-1.7-5.1 c-0.3-0.6-1.2-2.6-1.2-3.1c0-0.8,0.6-1.6,1.6-1.6c0.8,0,1.4,0.3,2.6,3.5c0.5,1.3,2.2,5.7,2.5,8.4 C325.1,303.7,323.9,304.1,323.4,304.1z M323.1,265.5v8.5h5v-8.5H323.1z M323.1,277.3v8.5h5v-8.5H323.1z M335.2,304.3 c-1.2,0-1.3-0.4-2.7-4.1c-0.8-2-2.1-4.2-3.6-6.7c-0.5-0.8-0.7-1.1-0.7-1.6c0-0.7,0.7-1.6,1.6-1.6c1.3,0,3.1,3.3,4.3,5.5 c0.7,1.4,2.9,5.8,2.8,7C336.7,303.5,336.2,304.3,335.2,304.3z M331.5,265.5v8.5h5.1v-8.5H331.5z M331.5,277.3v8.5h5.1v-8.5H331.5z M347,304.2c-1,0-1.2-0.4-2.9-3.7c-1.1-2.2-3.6-5.4-5.3-7.6c-0.3-0.3-0.4-0.7-0.4-1c0-0.8,0.6-1.6,1.6-1.6c1.1,0,3.7,3.7,4.9,5.3 c1,1.4,3.8,5.8,3.8,7.1C348.7,303.3,348,304.2,347,304.2z M363.5,275.9h2.3c1.2,0,2.7,0,2.7,1.6c0,1.7-1.5,1.7-2.7,1.7h-2.3v13 c0.6-0.3,3.3-1.6,3.8-1.6s1.6,0.6,1.6,1.7c0,0.9-0.3,1.5-4.5,3.2c-2.7,1.1-9.2,3.6-10.3,3.6s-1.7-0.9-1.7-1.7c0-0.6,0.3-1.2,0.9-1.5 c0.4-0.2,5.7-1.8,6.7-2.2v-14.5h-4.3c-1.2,0-2.7,0-2.7-1.6c0-1.7,1.5-1.7,2.7-1.7h4.3v-12.2h-4.7c-1.2,0-2.8,0-2.8-1.6 c0-1.7,1.5-1.7,2.8-1.7h11.1c1.2,0,2.8,0.1,2.8,1.7c0,1.7-1.5,1.7-2.8,1.7h-2.8L363.5,275.9L363.5,275.9z M385.8,289.5h9.8 c1.2,0,2.7,0.1,2.7,1.6c0,1.6-1.5,1.6-2.7,1.6h-9.8v6.8h10.7c1.2,0,2.8,0,2.8,1.7s-1.5,1.7-2.8,1.7h-26.3c-1.3,0-2.8,0-2.8-1.7 s1.5-1.7,2.8-1.7h12.1v-6.8h-9.6c-1.2,0-2.7,0-2.7-1.6s1.5-1.7,2.7-1.7h9.6v-5.1h-6.9c-1.3,0-4.7,0-4.7-3.7v-17.8 c0-3.7,3.4-3.7,4.7-3.7h17.2c1.3,0,4.7,0,4.7,3.7v17.9c0,3.7-3.4,3.7-4.7,3.7h-6.8V289.5L385.8,289.5z M382.3,269.8v-7.3h-6.4 c-1.3,0-1.6,0.8-1.6,1.8v5.5H382.3z M374.3,273.1v6.1c0,1,0.3,1.9,1.6,1.9h6.4v-8H374.3z M394,269.8v-5.5c0-1-0.3-1.8-1.6-1.8h-6.5 v7.3H394z M385.8,273.1v8h6.5c1.3,0,1.6-0.9,1.6-1.9v-6.1H385.8z M419,276.8c1.2-0.8,2.9-1.8,5.9-1.8c1.1,0,5.6,0,7,5.8 c1.1-0.5,11.1-4.8,12.4-4.8s1.9,1.1,1.9,1.9c0,1.4-1.1,1.8-3.4,2.6c-3.3,1.2-8.2,2.9-10.2,3.8c0.2,1.4,0.2,3.1,0.2,4.6 c0,2.7,0,4.4-1.9,4.4c-0.4,0-1.8-0.2-1.8-2.1v-5.1c-2.3,1.3-8.2,4.5-8.2,7.8c0,4.9,8.2,4.9,10.1,4.9c0.8,0,4.6,0,8.2-0.8 c0.6-0.1,1.8-0.4,2.2-0.4c1.3,0,1.8,0.9,1.8,1.7c0,1.4-1.1,1.8-1.6,1.9c-0.8,0.3-4.9,1.1-10.8,1.1c-1.5,0-6.4,0-9.7-1.9 c-1-0.6-3.9-2.6-3.9-6.1c0-5.7,7.2-9.6,11.5-11.8c-0.3-1.3-0.9-4.1-4.7-4.1c-2.9,0-6,1-11.9,7c-2.9,2.9-3.2,3.3-3.9,3.3 c-1.2,0-2-0.9-2-2c0-0.8,0.3-1.3,2.4-3.4c2.4-2.3,6.8-6.7,9.9-12.7c-2.7,0.1-4.2,0.1-7.1,0.1c-1.8,0-3.5,0-3.5-1.8 c0-1.9,1.2-1.9,4-1.9c1.3,0,7.1,0.1,8.4,0.1c1.3-2.7,1.4-3.3,2.6-6.9c0.3-0.7,0.6-1.8,2-1.8c1.1,0,1.8,0.9,1.8,1.7 c0,1.3-1.7,5.2-2.3,6.8c4.7-0.2,6.5-0.3,8.8-0.5c1.4-0.2,3.6-0.6,5-0.6c1.5,0,1.5,1.5,1.5,1.7c0,1.6-1.3,1.9-3.4,2.1 c-3.9,0.4-9.8,0.7-13.6,0.8C420.3,274.6,419.8,275.4,419,276.8z M460.2,273.8c-0.6,0-2.5,0-2.5-1.9c0-1.7,1.5-1.8,2.2-1.8 c0.4,0,2.3,0.1,2.7,0.1c3.6,0,9.6-0.5,14-1c-1.7-2.3-4.8-6.5-5-6.8c-0.6-0.8-0.9-1.3-0.9-1.8c0-1,0.7-2,2-2c1,0,1.4,0.6,1.8,1.2 c2,3,3.9,6,6,9c1.7-0.3,6.8-1,10.6-2.1c0.6-0.2,3.2-1.2,3.8-1.2c1.3,0,1.8,1.1,1.8,1.8c0,0.3-0.1,1.2-1,1.7c-1.9,1-7.8,2-13,2.9 c2.1,2.7,2.6,3.3,9.2,10.5c1.3,1.4,1.6,1.9,1.6,2.7c0,0.9-0.6,2.1-1.9,2.1c-1,0-2.4-0.6-3.2-1c-4.6-1.9-9.6-2.4-12-2.4 c-4.4,0-12.8,1.5-12.8,7.5c0,4.6,5.7,7.8,12.9,7.8c4.1,0,10.1-1.2,12.4-2.4c0.5-0.3,1.1-0.5,1.5-0.5c0.9,0,1.9,0.7,1.9,1.9 c0,0.9-0.5,1.4-1.2,1.8c-1.4,0.8-7.5,2.6-13.8,2.6c-10.3,0-17.4-4.7-17.4-11.4c0-6.3,6.1-10.8,16-10.8c1.1,0,7.2,0,12,2.3 c-3-3.1-5.7-6-9-10.4C468.3,273.7,461.7,273.8,460.2,273.8z M520.5,284.5c-0.1,1.7-0.2,7.9,0.3,9.4c1.1,3.4,7.3,3.6,10.3,3.6 c4,0,7.5-0.4,9.9-0.9c0.5-0.1,2.7-0.7,3.2-0.7c1,0,1.7,0.8,1.7,1.9c0,1.2-0.7,1.6-1.3,1.9c-1.1,0.4-6.3,1.5-13,1.5 c-14.8,0-14.8-5.1-14.7-11.4l0.2-14.3l-7.2,0.3c-1.5,0.1-3.4,0.1-3.4-1.9c0-1.9,1.8-2,3.3-2l7.4-0.3c0.1-2.8,0.1-7.2,0.1-8.7 c0-1.6,0.1-3.3,2-3.3s2,1.7,1.9,3.4l-0.3,8.5l15-0.6c0-1.6-0.1-8.6-0.1-10s1-2.1,2-2.1c0.8,0,1.9,0.5,1.9,2.2c0,3.1,0,6.6,0,9.7 l6.5-0.3c1.5-0.1,3.4-0.1,3.4,1.9c0,1.9-1.7,2-3.2,2l-6.8,0.3c-0.3,8.9-0.7,10.7-3.1,12.6c-1.5,1.2-4.1,1.7-5.4,1.7 c-1.1,0-1.8-0.9-1.8-1.8c0-1.5,1.3-1.6,2.3-1.8c4.2-0.5,4.3-2.8,4.4-10.6l-15.1,0.6L520.5,284.5z M563,286.5c-2.6,4.2-3.1,4.2-4,4.2 c-1.4,0-1.9-1.1-1.9-1.9c0-0.3,0.1-0.7,0.9-1.7c2.6-3.3,6-9.3,8.2-16.1c-1.1,0.1-6.1,0.4-6.6,0.4c-0.7,0-2.4,0-2.4-1.8 c0-1,0.7-1.6,1.2-1.8c0.7-0.2,7.3-0.3,8.8-0.4c0.6-2.3,0.6-2.7,1.2-6.7c0.3-1.8,1.5-1.8,2-1.8c0.2,0,1.9,0.1,1.9,2 c0,1.2-0.9,5-1.2,6.3c2.2-0.2,4.3-0.4,5.5-0.6c0.3-0.1,0.9-0.1,1.2-0.1c1.2,0,2,0.8,2,1.9c0,0.8-0.4,1.5-1.1,1.7 c-0.9,0.3-7.1,0.7-8.6,0.8C569.2,273.5,567.5,279.4,563,286.5z M585,278.1c-0.1-1-0.1-1.2-0.1-1.4c0-1.8,1.3-2.1,1.9-2.1 c1.9,0,2,1.7,2,3.3l0.4,9.4c2.1,1,9,4.7,9,6.9c0,0.7-0.5,2-1.9,2c-0.7,0-0.9-0.2-2.8-1.8c-2.2-1.9-3.2-2.5-4.3-3 c0.1,0.9,0.1,1.3,0.1,1.9c0,2,0,9.1-9.9,9.1c-6.9,0-10.7-4.1-10.7-8.9c0-5.3,4.6-8.8,10.3-8.8c2.2,0,4.3,0.5,6.7,1.3L585,278.1z M578.8,288.2c-3.9,0-6.5,2.1-6.5,5.2c0,3.3,2.8,5.4,7,5.4c3.8,0,6.5-2.1,6.5-6.3c0-0.9-0.1-1.7-0.3-2.5 C583.3,288.5,580.3,288.2,578.8,288.2z M597.5,270.1c2,1.5,2.9,2.3,2.9,3.4c0,1-0.7,1.8-1.8,1.8s-3-2.1-4.7-3.2 c-3.4-2.3-4.5-2.9-8.5-4.8c-0.6-0.3-1.5-0.7-1.5-1.9c0-1.1,0.8-1.8,1.9-1.8C587,263.6,593.2,266.9,597.5,270.1z M614.5,267.7 c-0.8,3.2-1.5,6.7-1.5,11.4c0,11.7,4.5,17.4,7.5,17.4c1.9,0,2.8-1.2,4.3-3.9c1.1-1.9,1.2-2.1,2.2-2.1c0.9,0,1.7,0.6,1.7,1.8 c0,1.4-3.3,8-8.5,8c-5.7,0-11-8.1-11-21.3c0-2.6,0.2-9.5,2.5-16.2c0.6-1.7,1.1-2,2-2s2.4,0.6,1.9,2.4 C615.5,264.4,614.8,266.7,614.5,267.7z M649.8,287.1c0,5.5-0.7,7-2.5,7c-1.3,0-2-1-2-1.9c0-0.3,0.1-0.7,0.1-1c0.1-0.6,0.5-2.7,0.5-5 c0-4.3-1.5-11.5-6-15.5c-0.5-0.5-3-2.2-3.3-2.7c-0.1-0.3-0.3-0.6-0.3-1c0-1.4,1.3-2.1,2.2-1.9C641,265.8,649.8,272.8,649.8,287.1z M673.8,295.1c0,4.3-3.3,7.7-7.5,7.7s-7.5-3.4-7.5-7.7c0-4.3,3.3-7.7,7.5-7.7C670.3,287.4,673.8,290.9,673.8,295.1z M661.3,295.1 c0,2.8,2.2,5.1,4.9,5.1c2.8,0,5-2.3,5-5.1c0-2.7-2.2-5.1-5-5.1C663.5,290.1,661.3,292.4,661.3,295.1z M-24.9,359.5 c0,2.1-1.7,3.8-3.8,3.8s-3.8-1.7-3.8-3.8s1.8-3.8,3.8-3.8C-26.6,355.7-24.9,357.3-24.9,359.5z M6.6,360.1c-0.2,0.2-4.9,4.4-6.4,4.4 c-0.7,0-1.6-0.6-1.6-1.7c0-0.6,0.3-1,0.8-1.4c7.7-5.5,9.3-8.2,12.9-14.3c0.4-0.6,0.8-0.9,1.5-0.9c1,0,1.6,0.8,1.6,1.5 c0,1.4-2.7,5.8-5.4,9v23.4c0,1.3,0,2.8-1.7,2.8s-1.7-1.6-1.7-2.8C6.6,380.1,6.6,360.1,6.6,360.1z M0.4,350.4c-0.8,0-1.6-0.7-1.6-1.6 c0-1,0.8-1.5,1.8-2.1c3.5-2.3,6.8-6.1,8.1-7.9c1.9-2.6,2.1-2.9,2.9-2.9c1,0,1.6,0.9,1.6,1.6C13.2,340,2.9,350.4,0.4,350.4z M37.3,361.6c1.3,0,3.4,0,3.4,2.7c0,2.2-2.6,6.9-7.6,10.9c3.1,1.9,5.6,2.6,10.5,4.1c1.3,0.4,2.1,0.6,2.1,1.8c0,0.6-0.5,1.6-1.6,1.6 c-0.9,0-8.7-2-14-5.4c-6.5,3.9-14.5,5.2-15.5,5.2c-1.9,0-2-1.3-2-1.6c0-1.5,1.6-1.8,2.1-1.8c2.9-0.5,7.4-1.1,12.5-3.9 c-3-2.7-5-6-6.7-9.3c-3.1,4.1-6.7,6.9-7.7,6.9c-0.8,0-1.7-0.7-1.7-1.7c0-0.5,0.2-0.9,0.9-1.5c2.4-1.8,6.4-4.8,8.6-10.8 c-4.8,0.1-5.3,0.1-5.8,0.1c-0.4,0-1.9,0-1.9-1.5c0-1.6,1.5-1.6,2.2-1.6c2,0,4.8,0,6.7-0.1c1.6-1.4,2.6-2.4,3.5-3.3 c-3.4-3.9-6.9-6.5-10.3-9c-0.6-0.4-0.8-0.9-0.8-1.4c0-1.1,1-1.7,1.6-1.7c1.1,0,3.7,2.2,4.9,3.2c1.9-2,3.8-4.5,4.5-5.4 c1.6-2.2,1.7-2.5,2.6-2.5c1,0,1.7,0.8,1.7,1.6c0,1.7-5.9,8.1-6.2,8.5c0.9,0.8,3.7,3.5,4.4,4.4c0.6-0.7,5.2-5.8,7.9-10.7 c1-1.7,1.2-2.1,2.2-2.1c1.1,0,1.7,1,1.7,1.6c0,2.4-8.3,12.7-12.7,16.9c6.2-0.3,6.8-0.3,12.6-0.7c-1.1-2.1-1.3-2.4-2.8-4.9 c-0.7-1.1-0.9-1.4-0.9-1.8c0-0.6,0.6-1.6,1.7-1.6c0.7,0,1.5,0,4.8,6.3c0.1,0.2,2.8,5.5,2.8,7.1c0,1-0.8,1.6-1.6,1.6 c-1.1,0-1.3-0.4-2.7-3.8c-6.6,0.5-11.7,0.7-16.8,0.8c-0.2,0.7-0.5,1.4-1.1,2.9h14.5L37.3,361.6L37.3,361.6z M23.6,364.9 c2.6,4.7,4.5,6.6,6.6,8.5c3.2-2.4,4.3-3.8,5-4.8c0.6-0.9,1.5-2.5,1.5-3c0-0.6-0.7-0.6-0.9-0.6L23.6,364.9L23.6,364.9z M61.3,341.3 V339c0-1.3,0-2.7,1.7-2.7c1.6,0,1.6,1.5,1.6,2.7v2.3h7.9c1.4,0,2.9,0,2.9,1.8s-1.4,1.8-3.2,1.8c-0.1,1.5-0.4,4-2,11.5h3.5 c1.3,0,2.8,0,2.8,1.7s-1.5,1.7-2.8,1.7H52.3c-1.3,0-2.8,0-2.8-1.7s1.5-1.7,2.8-1.7h3.5c-0.3-3.9-0.7-6.8-1.7-11.5 c-2.6,0-3.7,0-3.7-1.8s1.5-1.8,2.9-1.8H61.3z M68.8,362.6c1.6,0,5.1,0,5.1,4.2v10.5c0,4.2-3.4,4.2-5.1,4.2H57.5 c-1.6,0-5.1,0-5.1-4.2v-10.5c0-4.2,3.5-4.2,5.1-4.2H68.8z M58,365.9c-0.9,0-2.3,0.1-2.3,1.8v8.8c0,1.7,1.6,1.7,2.3,1.7h10.4 c0.7,0,2.2,0,2.2-1.7v-8.8c0-1.8-1.6-1.8-2.2-1.8H58z M57.4,344.8c0.9,4.2,1.3,7,1.7,11.5h7.7c0.6-2.3,1.6-6.5,2.3-11.5H57.4z M83,340.7c-1.3,0-1.9,0.8-1.9,2v37.1c0,1.2,0,2.8-1.7,2.8s-1.7-1.6-1.7-2.8v-39.3c0-1.6,1.6-2.9,2.8-2.9h11.1 c1.7,0,3.2,1.4,3.2,3.9c0,5.7-2.9,10.1-4.6,12.6c1.8,2.1,5.6,6.6,5.6,13.6c0,8.9-5.5,8.9-7.8,8.9c-2.6,0-5-0.6-5.6-1 c-0.7-0.5-0.8-1.1-0.8-1.4c0-0.9,0.7-1.7,1.7-1.7c0.3,0,0.5,0.1,2.3,0.6c0.7,0.2,1.3,0.3,2.1,0.3c3,0,4.7-0.9,4.7-5.5 c0-5-3.1-9.9-4.8-11.5c-0.9-0.9-1.4-1.3-1.4-2s0.1-0.8,1.4-2.3c2.9-3.5,3.7-7.7,3.7-9.1c0-1.6-0.6-2.1-2-2.1h-6.3L83,340.7L83,340.7 z M123.5,341.1v-2.3c0-1.3,0-2.9,1.7-2.9s1.7,1.6,1.7,2.9v2.3h15.9c1.3,0,2.9,0,2.9,1.7s-1.6,1.7-2.9,1.7h-34.5 c-1.5,0-1.8,0.4-1.8,1.6v13.4c0,5.1-0.4,12.7-2.9,19.3c-1,2.7-1.6,3.2-2.6,3.2c-1.1,0-1.7-0.9-1.7-1.7c0-0.6,1.2-3.1,1.4-3.7 c2.3-6.6,2.5-11.4,2.5-16.9v-14.9c0-3.7,2.8-3.7,3.7-3.7H123.5L123.5,341.1z M124.5,378.2v-5.8h-12.8c-1.3,0-2.8,0-2.8-1.7 s1.6-1.7,2.8-1.7h12.8v-20.7c0-1.3,0-2.8,1.7-2.8s1.7,1.6,1.7,2.8V369h13.1c1.3,0,2.8,0,2.8,1.7s-1.5,1.7-2.8,1.7H128v5.8h15.3 c1.3,0,2.9,0,2.9,1.8c0,1.7-1.6,1.7-2.9,1.7h-33.8c-1.4,0-2.9,0-2.9-1.8c0-1.7,1.6-1.7,2.9-1.7H124.5z M122.4,361.3 c1.6,1.6,1.9,2.1,1.9,2.6c0,1.1-0.9,1.7-1.7,1.7c-1,0-1.8-0.9-2.8-2c-2.7-2.8-2.9-3.2-4.5-5c-2.3,4.3-5.2,8.5-6.7,8.5 c-1.1,0-1.7-0.8-1.7-1.7c0-0.6,0.4-1.1,1.6-2.5c3.8-4.4,5.4-8,6.7-14.4c0.3-1.5,0.6-2.6,2-2.6c0.7,0,1.7,0.5,1.7,1.8 c0,0.7-0.9,4.3-1.9,7.2C119,357.9,120.4,359.2,122.4,361.3z M145.1,362.4c1,1,1.5,1.4,1.5,1.9c0,1.2-1,1.8-1.7,1.8 c-1.8,0-6.6-5.9-8-7.8c-1.7,3.3-5.1,8.2-6.8,8.2c-0.9,0-1.7-0.8-1.7-1.7c0-0.7,0.5-1.2,1.5-2.3c1.6-1.6,5.7-5.9,6.7-15.1 c0.1-0.5,0.2-1.8,1.6-1.8c0.2,0,1.7,0.1,1.7,1.8c0,2.4-1.1,5.7-1.5,7.1C139.6,356.6,140.9,358.2,145.1,362.4z M174.3,340.1v-1.3 c0-1.5,0-3.1,1.8-3.1s1.8,1.6,1.8,3.1v1.3h16c1.3,0,2.9,0,2.9,1.7s-1.6,1.7-2.9,1.7h-35.1c-0.9,0-1.7,0.9-1.7,1.6v15 c0,9.4-0.9,12.7-1.6,15.3c-0.6,2.2-1.9,6.1-3.6,6.1c-1.1,0-1.7-0.9-1.7-1.4s0.3-1.1,0.4-1.2c3.1-6.6,3.2-12.6,3.2-18.9v-15.7 c0-2.2,1.2-4.2,4.2-4.2H174.3L174.3,340.1z M193.6,349.3c1.2,0,2.7,0,2.7,1.6s-1.5,1.6-2.7,1.6h-6.4v4.4c0,1.8-0.8,3.5-2.9,3.5h-5.5 v3.8H190c1.4,0,3.2,1,3.2,3.6v9.1c0,2.6-1.7,3.6-4.2,3.6c-1.9,0-4.6-0.5-6.4-1c-0.9-0.3-1.2-1-1.2-1.6c0-0.7,0.5-1.6,1.7-1.6 c0.5,0,2.1,0.4,2.7,0.6c1.1,0.3,2,0.4,2.5,0.4c1.1,0,1.5-0.6,1.5-1.6v-6.6c0-0.5-0.3-1.4-1.5-1.4h-9.4v11.8c0,1.3,0,2.9-1.7,2.9 s-1.7-1.6-1.7-2.9v-11.8h-9.1c-0.7,0-1.3,0.3-1.3,1.2v9.1c0,1.3,0,2.9-1.7,2.9c-1.8,0-1.8-1.6-1.8-2.9v-10.5c0-2.2,1.8-3.1,3.2-3.1 h10.7v-3.8h-4.9c-2.7,0-3.2-1.9-3.2-3.4v-4.5h-5.9c-1.2,0-2.7,0-2.7-1.6s1.5-1.6,2.7-1.6h5.9v-1.8c0-1.3,0-2.9,1.7-2.9 c1.8,0,1.8,1.6,1.8,2.9v1.8H184v-1.9c0-1.2,0-2.8,1.7-2.8s1.7,1.5,1.7,2.8v1.9h6.3L193.6,349.3L193.6,349.3z M170.9,352.6v3.2 c0,1.1,0.5,1.4,1.5,1.4h10.4c1.1,0,1.2-1,1.2-1.6v-3H170.9L170.9,352.6z M217.5,340.5c0.2-1.5,0.4-3.1,2-3.1c0.7,0,1.8,0.6,1.8,2 c0,0.4,0,0.5-0.2,1.6l-0.8,6.1l8.8,0.1c1.5,0,3.3,0,3.3,1.9s-2,1.9-3.3,1.9l-9.2-0.1l-1.1,8.2l10.1,0.1c1.5,0,3.3,0,3.3,1.9 s-1.9,1.8-3.3,1.8l-10.5-0.1c-0.2,1.1-0.3,2.3-0.4,2.9c-0.1,0.7-0.1,1.7-0.1,2.1c0,5,1.4,9.8,9.7,9.8c7.6,0,13.2-4.3,13.2-11.8 c0-1.3-0.6-4.8-0.6-5.4c0-1.1,0.7-2,1.9-2c0.7,0,1.3,0.3,1.7,1c0.6,1.3,0.8,4,0.8,5.5c0,10.8-7.1,16.1-16.9,16.1 c-13.4,0-13.4-9.4-13.4-12.9c0-1.4,0.1-2.3,0.2-2.9s0.2-1.8,0.3-2.5l-7.6-0.1c-1.5,0-3.3,0-3.3-1.9s2-1.8,3.4-1.8l8.1,0.1l1-8.2 l-7.4-0.1c-1.5,0-3.3,0-3.3-1.9s1.9-1.9,3.4-1.9l7.8,0.1L217.5,340.5z M265.5,354.3c2.2,1.7,4.5,3.4,4.5,4.8c0,1.2-1,2-2,2 c-0.7,0-0.9-0.2-2.7-1.7c-2.2-2-5.2-4.2-8.6-6c-0.5-0.3-1.4-0.7-1.4-1.9c0-1.5,1.4-2,2.1-1.9C258.6,349.8,262.6,352.1,265.5,354.3z M286.8,367.1c-10,10.7-25.1,12.5-27.4,12.5c-2.2,0-2.4-1.6-2.4-2c0-2.1,1.8-2.1,2.7-2.1c5.7-0.1,26.1-4.2,32.6-25.2 c0.2-0.6,0.5-1.7,2-1.7c1,0,1.9,0.8,1.9,1.8C296.1,351.5,293.6,359.6,286.8,367.1z M275.4,346.5c1.2,1,1.7,1.4,1.7,2.4 c0,1.1-0.9,2-2,2c-0.6,0-0.9-0.2-2.8-1.9c-2.6-2.2-5.5-4.2-8.5-5.8c-0.6-0.3-1.4-0.8-1.4-1.9c0-1.6,1.5-2,2.1-1.9 C266,339.6,272.5,344.1,275.4,346.5z M346,357.4c1.4,0,2.1,1,2.1,2.1c0,1.2-0.8,2.1-2.1,2.1h-40.7c-1.5,0-2.2-1.1-2.2-2.1 c0-0.9,0.6-2.1,2.2-2.1H346z M370.3,378c0,1.6,0,3.4-2.1,3.4s-2.1-1.8-2.1-3.4v-37.2c0-1.6,0-3.4,2.1-3.4s2.1,1.8,2.1,3.4v12.1 c5.8,1,14.2,4.1,18.5,6.1c3.2,1.5,3.7,2,3.7,3c0,0.9-0.5,2.1-1.8,2.1c-0.6,0-1.2-0.4-1.9-0.7c-8.2-4.4-16.4-6.1-18.5-6.5V378 L370.3,378z M431,350.8c4.6,5.6,8,10.2,13.9,18.4c2.6,3.6,2.8,4,2.8,4.9c0,0.7-0.5,1.9-2,1.9c-1,0-1.3-0.4-2.3-1.9 c-6-8.8-13.8-19.3-17.9-24c-2.6-3-3.2-3.3-4.2-3.3c-1.6,0-3.7,2.8-5.4,5c-0.7,0.9-6.6,8.8-6.8,8.9c-0.4,0.4-0.8,0.6-1.4,0.6 c-1.1,0-2.1-0.9-2.1-2.1c0-0.7,0.4-1.2,0.9-1.9c2.9-3.8,5-6.4,8.7-10.6c1.6-1.8,3.7-4.1,5.7-4.1C423,342.6,424.5,342.9,431,350.8z M437.5,339.8c0-0.4,0.4-1,1-1c1.4,0,5.5,7.3,5.5,8.6c0,1-0.8,1.4-1.4,1.4c-1,0-1.3-0.8-1.5-1.4c-1.1-2.9-2-4.9-2.7-5.9 C438,341.1,437.5,340,437.5,339.8z M441.5,338.1c0-0.6,0.5-1,1.1-1c1.1,0,5.8,6.8,5.8,8.5c0,0.9-0.7,1.3-1.3,1.3 c-0.9,0-1.2-0.6-1.5-1.3c-0.9-1.8-1.8-3.8-3.2-5.9C441.8,338.8,441.5,338.4,441.5,338.1z M463.7,375.3c-1.1,1.4-3.6,4.5-5.2,4.5 c-1.1,0-1.9-0.9-1.9-2c0-0.9,0.4-1.2,1.2-2c8.7-7.2,8.7-19.4,8.7-28.7c0-0.8-0.1-4-0.1-4.7c0-0.4,0-2.4,1.9-2.4 c0.8,0,1.9,0.6,1.9,2.2C470.2,356.6,470.2,366.6,463.7,375.3z M481,372c0,1.3,0,1.9,1.1,1.9c1.9,0,10.5-4.4,13.5-16.5 c0.2-0.8,0.8-4,1.1-4.6c0.2-0.5,0.8-0.9,1.6-0.9c0.6,0,1.9,0.3,1.9,1.9c0,0.7-1,10.4-8.2,18.2c-3.5,3.8-7.5,6.1-11,6.1 c-3.6,0-3.6-2.3-3.6-4.3V342c0-1.3,0-3,1.8-3s1.8,1.6,1.8,3L481,372L481,372z M522.3,378c0,1.6,0,3.4-2.1,3.4s-2.1-1.8-2.1-3.4 v-37.2c0-1.6,0-3.4,2.1-3.4s2.1,1.8,2.1,3.4v12.1c5.8,1,14.2,4.1,18.5,6.1c3.2,1.5,3.7,2,3.7,3c0,0.9-0.5,2.1-1.8,2.1 c-0.6,0-1.2-0.4-1.9-0.7c-8.2-4.4-16.4-6.1-18.5-6.5V378z M570.8,355.6c1.2-0.8,2.9-1.8,5.9-1.8c1.1,0,5.6,0,7,5.8 c1.1-0.5,11.1-4.8,12.4-4.8s1.9,1.1,1.9,1.9c0,1.4-1.1,1.8-3.4,2.6c-3.3,1.2-8.2,2.9-10.2,3.8c0.2,1.4,0.2,3.1,0.2,4.6 c0,2.7,0,4.4-1.9,4.4c-0.4,0-1.8-0.2-1.8-2.1v-5.1c-2.3,1.3-8.2,4.5-8.2,7.8c0,4.9,8.2,4.9,10.1,4.9c0.8,0,4.6,0,8.2-0.8 c0.6-0.1,1.8-0.4,2.2-0.4c1.3,0,1.8,0.9,1.8,1.7c0,1.4-1.1,1.8-1.6,1.9c-0.8,0.3-4.9,1.1-10.8,1.1c-1.5,0-6.4,0-9.7-1.9 c-1-0.6-3.9-2.6-3.9-6.1c0-5.7,7.2-9.6,11.5-11.8c-0.3-1.3-0.9-4.1-4.7-4.1c-2.9,0-6,1-11.9,7c-2.9,2.9-3.2,3.3-3.9,3.3 c-1.2,0-2-0.9-2-2c0-0.8,0.3-1.3,2.4-3.4c2.4-2.3,6.8-6.7,9.9-12.7c-2.7,0.1-4.2,0.1-7.1,0.1c-1.8,0-3.5,0-3.5-1.8 c0-1.9,1.2-1.9,4-1.9c1.3,0,7.1,0.1,8.4,0.1c1.3-2.7,1.4-3.3,2.6-6.9c0.3-0.7,0.6-1.8,2-1.8c1.1,0,1.8,0.9,1.8,1.7 c0,1.3-1.7,5.2-2.3,6.8c4.7-0.2,6.5-0.3,8.8-0.5c1.4-0.2,3.6-0.6,5-0.6c1.5,0,1.5,1.5,1.5,1.7c0,1.6-1.3,1.9-3.4,2.1 c-3.9,0.4-9.8,0.7-13.6,0.8C572.3,353.4,571.8,354.1,570.8,355.6z M614.3,353.6c-3.7-4.4-4.2-4.8-6.8-7.5c-1.1-1.1-1.4-1.4-1.4-2.1 c0-1.1,0.9-1.6,1.7-1.6c0.3,0,0.6,0,1.2,0.6c0.8,0.8,1.5,1.5,2.2,2.2c1.6-2.7,3.1-5.5,4.7-8.2c0.4-0.7,0.7-1.3,1.6-1.3 c1,0,1.6,0.8,1.6,1.5c0,1.1-2.1,4.5-5.6,10.3c0.5,0.6,1.2,1.3,2.7,3.2c1.6-2.6,3.1-5.2,4.6-7.8c0.3-0.5,0.7-1.2,1.5-1.2 s1.6,0.7,1.6,1.6c0,1.6-6.9,12.4-8.7,15.1c0.9-0.1,5.4-0.3,6.4-0.4c-0.2-0.8-1.1-5-1.1-5.1c0-1,0.9-1.5,1.5-1.5c1.2,0,1.5,1,1.8,2.6 c0.6,2.5,1.7,8.8,1.7,9.6c0,1.3-1,1.6-1.5,1.6c-1.3,0-1.4-0.4-2-4.1l-3.9,0.3v18.8c0,1.2,0,2.7-1.6,2.7s-1.6-1.5-1.6-2.7v-18.7 c-0.9,0.1-6.4,0.3-6.9,0.3c-0.7,0-2.2,0-2.2-1.5c0-0.5,0.3-1.2,1.1-1.5c0.5-0.1,0.8-0.2,4.2-0.3L614.3,353.6z M612.3,365.7 c0,1.5-1.3,7.9-2.3,11.9c-0.4,1.6-0.9,2.4-2,2.4c-0.3,0-1.5-0.2-1.5-1.4c0-0.1,2.2-10,2.5-11.9c0.4-2.2,0.5-2.8,1.7-2.8 C612,364,612.3,364.8,612.3,365.7z M622.7,366c0.4,2.7,1.1,5.7,2,8.8c0.2,0.6,0.4,1.3,0.4,1.8c0,1-0.9,1.4-1.4,1.4 c-1.1,0-1.5-0.9-1.8-2.1c-1.2-4.2-2.2-10.4-2.2-10.8c0-0.6,0.3-1.5,1.4-1.5C622.2,363.6,622.3,363.8,622.7,366z M640.7,360.9h5.5 c4.5,0,4.8,1.4,4.8,4.3v9c0,2.4-0.6,4.4-4.1,4.4c-2.1,0-4.2-0.8-4.3-0.9c-0.8-0.3-1.2-0.8-1.2-1.5c0-0.8,0.6-1.6,1.5-1.6 c0.6,0,3.1,0.7,3.6,0.7c1.2,0,1.2-1,1.2-1.8v-7.2c0-1.6-0.3-2.1-2-2.1h-5.1v15.9c0,1.2,0,2.7-1.6,2.7c-1.7,0-1.7-1.5-1.7-2.7v-15.9 h-4.8c-1.5,0-2.1,0.1-2.1,1.8v10.1c0,1.2,0,2.6-1.6,2.6s-1.6-1.4-1.6-2.6v-11.4c0-3.7,2.5-3.7,4.2-3.7h6v-5.9h-6.1 c-1.7,0-2.2,0.1-2.2,1.8v1.1c0,1.3,0,2.6-1.6,2.6c-1.5,0-1.5-1.4-1.5-2.6v-2.4c0-3.6,2.3-3.6,4.2-3.6h3.1c-0.6-2.7-1.1-4.6-1.8-7.4 h-3.6c-1.2,0-2.7,0-2.7-1.6s1.5-1.6,2.6-1.6h9.6v-2.5c0-1.2,0-2.8,1.7-2.8s1.7,1.6,1.7,2.8v2.5h9c1.2,0,2.6,0,2.6,1.6 s-1.4,1.6-2.6,1.6H647c-0.4,2-1.4,5.9-1.8,7.4h2.7c3.3,0,4.3,1.2,4.3,3.9v1.9c0,1.2,0,2.6-1.5,2.6c-1.6,0-1.6-1.4-1.6-2.6v-1 c0-1.4-0.1-1.8-1.7-1.8h-6.8L640.7,360.9L640.7,360.9z M634.8,344.5c0.4,1.7,0.5,2.3,1.6,7.4h5.6c0.4-1.5,1.4-5.3,1.8-7.4H634.8z M680.2,339.9c0-0.5,0.1-2.3,1.9-2.3c1.8,0,1.8,1.8,1.8,2.6c0,1.5-0.3,4.4-0.4,5.9c11.8,0.2,18,7.8,18,16 c0,10.9-10.3,17.5-18.8,17.5c-1,0-2.7,0-2.7-1.8c0-1.7,1.3-1.8,2.1-1.9c13.2-0.7,15.7-9.9,15.7-13.8c0-6.5-5.1-12.3-14.7-12.6 c-0.9,6-2.7,11.3-4.3,14.2c0.3,0.3,0.6,0.7,1.1,1.1c3.1,3,3.4,3.4,3.4,4.3c0,1-0.6,1.9-1.8,1.9s-2.3-0.9-4.6-3.7 c-0.9,1.3-5.4,7.7-11,7.7c-3.5,0-6.9-2.9-6.9-7.9c0-0.9,0-8.2,7.3-14.9c-0.9-1.6-4.3-7.4-4.3-8.8c0-0.9,0.7-1.9,1.8-1.9 c0.2,0,1,0.1,1.6,0.9c0.3,0.5,3.1,6.3,3.7,7.5c2-1.3,5.2-3,10.7-3.7C680,344.9,680,341.9,680.2,339.9z M668,355.4 c-3.2,3.2-5.6,7.4-5.6,11.6c0,2.3,1.2,4.5,3.5,4.5c3.9,0,7.6-5.7,8.5-6.9C673.7,363.5,671,360.1,668,355.4z M671,353.1 c2.6,4.3,4.6,6.8,5.4,7.9c2.2-5,2.8-9.3,3.1-11.1C677.5,350.2,674.5,350.8,671,353.1z M734.2,353.1c12.6,0,15.8,8.1,15.8,12.4 c0,7.8-7.5,14.6-18.3,14.6c-7.6,0-12.8-3.6-12.8-8.4c0-4.1,3.4-7.1,9.1-7.1c6.4,0,11.4,4,12.2,10.1c5.2-2.6,6.1-6.9,6.1-9 c0-5-4.2-9.6-11.6-9.6c-1.9,0-11.6,0.3-18.6,6.9c-1.9,1.8-2.1,2-3.1,2c-1.2,0-2-1-2-2c0-1.1,0.3-1.3,3-3.4 c5.8-4.6,15.8-12.4,22.5-16.6c-4.8,1.1-13.6,1.5-18.7,1.5c-1.8,0-2.2-1.2-2.2-1.9c0-2,1.6-2,2.4-2c10.8,0,11.7-0.1,19.2-0.9 c0.7-0.1,3.6-0.7,4.3-0.7c2.2,0,2.3,1.7,2.3,2c0,0.7-0.2,1.3-2.4,2.7c-3.7,2.4-4.2,2.6-8.6,5.8c-2.6,1.8-7,5-7.7,5.5 C728.5,353.9,730.8,353.1,734.2,353.1z M728,368.1c-3,0-5.5,1.3-5.5,3.6c0,3.6,5.6,5.1,9.4,5.1c2,0,3.1-0.4,4.6-1 C736.3,372.1,733.3,368.1,728,368.1z M775,373.9c0,4.3-3.3,7.7-7.5,7.7s-7.5-3.4-7.5-7.7c0-4.3,3.3-7.7,7.5-7.7S775,369.7,775,373.9 z M762.5,373.9c0,2.8,2.2,5.1,4.9,5.1c2.8,0,5-2.3,5-5.1c0-2.7-2.2-5.1-5-5.1C764.7,368.8,762.5,371.1,762.5,373.9z"/></svg>