<?xml version="1.0" encoding="utf-8"?>
<!-- Generator: Adobe Illustrator 22.1.0, SVG Export Plug-In . SVG Version: 6.00 Build 0)  -->
<svg version="1.1" id="レイヤー_1" xmlns="http://www.w3.org/2000/svg" xmlns:xlink="http://www.w3.org/1999/xlink" x="0px"
	 y="0px" viewBox="0 0 700 700" style="enable-background:new 0 0 700 700;" xml:space="preserve">
<g>
	<path d="M672.5,459c-8.9,1.9-37.6,6.9-75.1,12.3c-9.4,28.5-25.2,54.5-46.6,76.2C634.9,506.2,687.3,455.9,672.5,459z"/>
	<path d="M265.6,542.1c-51.3-56.3-63.8-134.5-38.8-201.3c-7.8-22.3-13.7-45-17.4-66.3c-4-23-17-38.1-33.6-46.5l5.4-63.7
		c8.9-3.9,15.9-11.7,18.5-21.9c4.4-17.4-6.2-35.1-23.6-39.5c-17.4-4.4-35.1,6.2-39.5,23.6c-3.5,13.8,2.4,27.8,13.7,35.2l-5,58.3
		c-15.8-1.1-32.2,1.8-46.4,8.2l-11.4-69.4c7.7-6,12.6-15.3,12.6-25.7c0-18-14.6-32.6-32.6-32.6c-18,0-32.5,14.6-32.5,32.6
		c0,14.2,9.1,26.3,21.8,30.7l14,85.3c-5.5,6.9-9.3,14.8-10.9,23.6c0,0-46.6,229.5,177.8,308.9c40.8,14.5,82.2,19.4,122.3,17.8
		C324,589.7,291.1,570,265.6,542.1z"/>
	<path d="M269.1,515.3c-14.8-19.1-25.3-40.5-31.3-63.8c-6.5-25.3-7.2-52.3-2.1-78.1c8.2-41.4,31.2-78.5,64.6-104.5
		c4.3-3.3,8.7-6.4,13.3-9.4c22.5-14.3,47.2-23.1,73.7-26.2c47.5-5.6,95.7,8.7,132.4,39c10,8.2,19,17.6,27,27.8
		c8.2,10.6,15.2,22.1,20.7,34.1c20,43.2,21.4,93.5,3.8,138c-9.7,24.7-24.6,46.4-44.2,64.5c-3.8,3.5-7.7,6.8-11.6,9.8
		c-33.8,26.1-75.8,39.1-118.4,36.4c-26.2-1.6-52.1-9.3-75-22C301.4,549.4,283.6,534.1,269.1,515.3z M265.4,462.6
		c5.3,13.8,12.7,26.8,21.8,38.6c9.3,11.9,20.1,22.3,32.2,31l-0.1-16c-8.2-6.7-15.6-14.3-22.2-22.7c-6.2-8-11.5-16.7-15.9-25.9
		L265.4,462.6z M294.4,461.7c3.8,8.1,8.6,15.8,14.1,23c5.2,6.7,11,12.8,17.4,18.3l52.4-17.4l7.6-26.1L352.2,416l-25.7,0.8
		L294.4,461.7z M311.7,289.3c-23.6,19.1-40.5,44.1-49.5,72.9l15.2-5.1c7.5-19.3,19.3-36.9,34.4-51.1L311.7,289.3z M416,560.1
		c30.1-1.6,58.5-11.8,82.9-29.9l-15.2-4.8c-17.4,11.2-37.3,18.5-57.9,21.1L416,560.1z M424.1,532.2c17.5-2.3,34-8.1,49-17.2
		l-0.4-53.8l-23.5-16L399.9,463l-7.6,26.1L424.1,532.2z M323.8,402.6l28.5-0.9l29.6-43.4l-9.2-25.5l-51.3-16.2
		c-12.8,12.1-22.7,26.5-29.5,42.8L323.8,402.6z M394.9,352.1l53,15.4l20.3-15.7l-0.4-54.4c-15.3-8.3-32.4-13.4-49.9-14.8l-32,44.7
		L394.9,352.1z M458.5,434.1l20.6,14l52.2-17.4c3.2-17.2,2.8-35.1-1.2-52l-51.9-16.4l-21.4,16.6L458.5,434.1z M415.7,268.1
		c20.7,1.2,41.1,7,59.2,16.9l15.9-5.3c-25.1-16.3-54.6-24.8-84.6-24.5L415.7,268.1z M555.3,447.1c7.7-29,6.7-59.7-2.8-88.1l-9.3,13
		c5.3,20,6,41.1,2.2,61.5L555.3,447.1z"/>
</g>
</svg>
