<?xml version="1.0" encoding="utf-8"?>
<!-- Generator: Adobe Illustrator 21.1.0, SVG Export Plug-In . SVG Version: 6.00 Build 0)  -->
<svg version="1.1" id="レイヤー_1" xmlns="http://www.w3.org/2000/svg" xmlns:xlink="http://www.w3.org/1999/xlink" x="0px"
	 y="0px" viewBox="0 0 850.4 425.4" style="enable-background:new 0 0 850.4 425.4;" xml:space="preserve">
<style type="text/css">
	.st0{fill:#FFFFFF;}
</style>
<g>
	<g id="XMLID_103_">
		<g>
			<path class="st0" d="M694.4,179v11.6c0,18.3-5.3,33.1-15.8,44c-0.1,0.1-0.1,0.2-0.2,0.3c-0.8,0.8-1.6,1.5-2.4,2.2
				c-1.7,1.5-3.4,3-5.3,4.3l-17.4,139.7l-62.6-7.7l-49.1,12.9l-6,5.1l-7.6-12.3l-202.8,0.1v-5.8l-23.6,18l-27.8-39l-25.7,38.2
				L179.7,344l18-27.1h-7v-10.6v-54.5h-0.8h-22h-0.7V205h-2.8h-8v-47.5v-3.5v-26.5h10.9v-8.2v-3.5V112h65.4l15.2-15.8l17.5,15.8h78
				v4.4h49.8v15.4l7.9-4.5c4.8-2.9,10.2-5.1,15.8-6.6c5.4-1.4,11.1-2.1,16.8-2.1c9.3,0,18.3,1.9,26.7,5.6v-7.5h21.8v-5.4h78.2v5.4
				h1.8v-2.7h75.3h57.1V175V179z M679.7,190.6v-62.1H576.8v2.7h-31.3v-5.4h-48.8v5.4H475v23.5c-4.3-6.3-9.9-11.4-16.5-15.1
				c-7.6-4.3-16-6.5-24.9-6.5c-4.4,0-8.8,0.5-13,1.7c-4.3,1.1-8.5,2.9-12.2,5.1l-29.6,17.1v-1.1h-0.4v-24.9h-49.8v-4.4h-49.2v4.4
				H274v8.5l-25.4-22.9l-17.8,18.5v-8.5H182v15.5h-10.9v48.3H182v46.8h64.1v12h-40.6v53.2H225l-25,37.7l44.2,30.1l29.4-43.5
				l31.3,43.9l35.2-26.8v20.8h52.6v-52.1l3.6,0.7v51.5h51.9v-16.3h10v8.9h20.4v7.3h48.8v-7.3h4.6l7.4,11.9l7.6-6.4l1.6,6.7
				l41.3-10.9l50.8,6.2l15.9-127.6l-10.2-1.3c8.8-1.8,16-5.5,21.6-11.2C675.7,216.6,679.7,205.1,679.7,190.6z"/>
			<path class="st0" d="M684.4,48.9v30.5c0,8.3-6.8,15-15.1,15h-7.4c-2,0.3-8.7,4.9-12.2,7.5c-5.6,3.9-8.5,5.8-11,6.2h0
				c-0.5,0.1-0.9,0.1-1.3,0.1c-0.9,0-1.8-0.2-2.6-0.5c-0.4-0.2-0.8-0.4-1.2-0.6c-0.4-0.3-0.7-0.5-1-0.8c-2.1-2.2-1.9-4.8-1.8-6.8
				c0-0.5,0.1-1.2,0-1.6c0-0.2,0-0.3,0-0.4c0-0.1-0.1-0.1-0.2-0.2c-0.9-1-4.8-2.9-8.8-2.9h-374h-76.8c-8.4,0-15.1-6.7-15.1-15V48.9
				c0-8.3,6.8-15,15.1-15h498.2C677.6,33.9,684.4,40.6,684.4,48.9z M679.2,79.3V48.9c0-5.4-4.4-9.8-9.9-9.8h-26.8H627h-22.4h-89.8
				H419h-79.9h-67h-43h-24.5h-19h-14.5c-2.7,0-5.2,1.1-7,2.9c-1.8,1.7-2.9,4.2-2.9,6.9v30.5c0,2.7,1.1,5.2,2.9,6.9
				c1.8,1.8,4.3,2.9,7,2.9h14.7H240h21.9h66.4H350h36.8h21.5h82.4h34.1h22.3h74.8c0.7,0,1.4,0,2.1,0.1c4.8,0.5,9.6,2.9,11.4,5.6
				c2,3.2-1,8.6,2.5,8c3.5-0.6,18.7-13.8,24.1-13.8h7.4C674.7,89.1,679.2,84.7,679.2,79.3z"/>
			<path class="st0" d="M665,143.1v47.5c0,10.6-2.6,18.7-7.8,24.1c-5.2,5.4-13.2,8.1-24.1,8.1H619v-19.3h14.9c3.9,0,6.7-1.1,8.5-3.3
				c1.8-2.1,2.7-5.3,2.7-9.4v-29.5h-12.5v-18.4H665z"/>
			<path class="st0" d="M646.3,50.4v7l-1.5,10.2c-0.2,1.2-0.4,2.5-2.2,2.5c-1.9,0-2.1-1-2.3-2.5l-1.5-10.2v-7c0-1.3,0.2-3.4,3.7-3.4
				C645.3,47,646.3,48.1,646.3,50.4z"/>
			<path class="st0" d="M642.5,72.4c2.2,0,4.1,1.7,4.1,4c0,2.3-1.9,4-4.1,4c-2.2,0-4.1-1.8-4.1-4C638.4,74.2,640.3,72.4,642.5,72.4z
				"/>
			<polygon class="st0" points="640,250 631.3,319.7 609.3,317.1 618,247.3 			"/>
			<path d="M637.4,108.1c0.4,0,0.8,0,1.3-0.1C638.2,108.1,637.8,108.1,637.4,108.1c-0.9,0-1.8-0.1-2.6-0.5
				C635.5,107.9,636.5,108.1,637.4,108.1z"/>
			<path d="M633.6,107c0.4,0.2,0.7,0.5,1.2,0.6C634.3,107.5,634,107.3,633.6,107z"/>
			<path d="M632.6,106.2c0.3,0.3,0.6,0.6,1,0.8C633.2,106.8,632.9,106.5,632.6,106.2z"/>
			<path d="M630.8,97.4c0,0.1,0,0.2,0,0.4C630.8,97.6,630.8,97.5,630.8,97.4c-0.1-0.1-0.1-0.1-0.2-0.2
				C630.7,97.3,630.8,97.3,630.8,97.4z"/>
			<path class="st0" d="M630.8,50.4v7l-1.5,10.2c-0.2,1.2-0.4,2.5-2.2,2.5c-1.9,0-2.1-1-2.3-2.5l-1.5-10.2v-7c0-1.3,0.2-3.4,3.7-3.4
				C629.8,47,630.8,48.1,630.8,50.4z"/>
			<polygon class="st0" points="630,330.5 627.7,348.6 605.9,346 608.1,327.8 			"/>
			<path class="st0" d="M627,72.4c2.2,0,4.1,1.7,4.1,4c0,2.3-1.9,4-4.1,4c-0.6,0-1.1-0.1-1.6-0.3c-1.5-0.6-2.5-2-2.5-3.7
				C623,74.2,624.8,72.4,627,72.4z"/>
			<path class="st0" d="M616.6,58.2c0,4.2-2,7.5-4.6,9.2c-2.5,1.6-6.6,1.6-7.5,1.6h-5.3V77c0,1.4-0.3,3.5-3.7,3.5
				c-2.7,0-3.8-1.1-3.8-3.5V53.4c0-4.3,2-5.6,5.6-5.6h7.2c4.7,0,6.4,0.9,7.1,1.4C614.2,50.6,616.6,53.5,616.6,58.2z M604.2,62.5
				c3.8,0,4.7-2,4.7-4.2c0-2.6-1.3-4.1-4.7-4.1h-3.9c-0.7,0-1.1,0.4-1.1,1.1v7.2H604.2z"/>
			<polygon class="st0" points="611.6,143.1 611.6,185.8 591.5,185.8 591.5,145.8 591.5,143.1 			"/>
			<path class="st0" d="M583.8,50.4V77c0,1.4-0.3,3.5-3.7,3.5c-2.4,0-3.5-0.9-3.7-2.6c0-0.3,0-0.5,0-0.8V57v-6.6
				c0-1.3,0.2-3.4,3.7-3.4C582.8,47,583.8,48.1,583.8,50.4z"/>
			<polygon class="st0" points="571.9,297.7 581.9,314 572.7,321.7 578.7,346.5 559.2,351.6 555.6,336.3 542.8,347.1 532.8,330.8 
				550.7,315.8 546.1,297 535.8,299.2 532.8,279.4 541.5,277.6 534.9,250.2 554.3,245.1 561.1,273.5 578,270 581,289.8 565.9,293 
				567.8,301.2 			"/>
			<polygon class="st0" points="574.6,246.6 579.2,262.7 564.8,266.6 560.2,250.5 			"/>
			<path class="st0" d="M570.5,184.1v10.2c0,8.1-2.9,14.9-8.6,20.6c-5.7,5.7-12.7,8.5-20.8,8.5c-4.1,0-8-0.8-11.7-2.4
				c-3.7-1.6-6.9-3.8-9.6-6.6c-1.9,1.1-3.8,2-5.9,2.5c-2,0.6-4.1,0.9-6.4,0.9c-6.5,0-12-2.3-16.6-6.8c-4.6-4.5-6.8-10-6.8-16.4
				c0-6.5,2.3-11.9,6.8-16.5c4.6-4.5,10.1-6.8,16.6-6.8c0.7,0,1.3,0.1,2,0.1c0.2,0,0.9,0.1,2,0.3v-7h-21.8v-19.2h21.8v-5.4h19.3v5.4
				h35v19.2h-18h-17.1v18.5V194v0.6c0,2.6,1,4.9,3,6.8c2,1.9,4.4,2.8,7.1,2.8s5.1-0.9,7.1-2.8c2-1.9,2.9-4.2,2.9-7l-14.8-10.9
				l11.8-15.5L570.5,184.1z M511.5,194.4c0-0.3,0.2-0.5,0.2-0.9c0-1.1-0.4-2-1.2-2.8c-0.8-0.8-1.7-1.2-2.8-1.2
				c-1.1,0-2.1,0.4-2.9,1.2c-0.8,0.8-1.2,1.7-1.2,2.9c0,0.1,0,0.2,0,0.3c-0.1,0.3-0.2,0.6-0.2,0.9c0,1.1,0.4,2,1.2,2.8
				c0.8,0.8,1.8,1.2,2.9,1.2c1.1,0,2.1-0.4,2.8-1.3c0.8-0.8,1.2-1.8,1.2-2.8C511.5,194.6,511.5,194.5,511.5,194.4z"/>
			<path class="st0" d="M569.6,57c0,0.7,0,5.5-4.2,7.5c3.2,1.5,3.2,4.2,3.3,9.6c0,0.6,0.3,3,0.3,3.5c0,0.9-0.1,2.7-3.7,2.7
				c-3.2,0-4.2-1.2-4.2-7.2c0-2.9,0-3.6-0.9-4.5c-0.3-0.3-0.9-0.9-3.2-0.9h-6.3V77c0,1.4-0.3,3.5-3.7,3.5c-2.7,0-3.8-1.2-3.8-3.5
				V53.4c0-0.5,0-1,0.1-1.5c0.5-3.1,2.4-4.1,5.6-4.1h9.2c3.6,0,5.8,0.4,8,2.1C567.9,51.2,569.6,53.6,569.6,57z M562.2,57.8
				c0-3.5-3.4-3.5-4.2-3.5h-6.1c-0.7,0-1.1,0.4-1.1,1.1v6.2h7C560.6,61.5,562.2,59.9,562.2,57.8z"/>
			<path class="st0" d="M537.9,51c0,0.3,0,0.6-0.1,0.8c-0.3,1.7-1.4,2.4-3.3,2.4h-6.2V77c0,1.3-0.2,3.5-3.6,3.5
				c-2.3,0-3.8-0.7-3.8-3.5V54.2h-6.2c-1,0-3.3-0.2-3.3-3.2c0-3,2-3.3,3.3-3.3h19.9C535.4,47.8,537.9,47.8,537.9,51z"/>
			<path class="st0" d="M532,330.8v12h-19.4v7.3h-19.4v-7.3h-20.4v-8.9v-9.1h20.4v-4.1h-17.8v-58.4h42h9h4.3v17.1v41.3h-18v4.1H532
				V330.8z M514,305.6v-6.4h-4.3v6.4H514z M514,284v-6.4h-4.3v6.4H514z M496.3,305.6v-6.4h-4.1v6.4H496.3z M496.3,284v-6.4h-4.1v6.4
				H496.3z"/>
			<polygon class="st0" points="531.4,246.9 526.4,262.4 517.4,262.4 510.8,260.1 516.6,242.1 			"/>
			<polygon class="st0" points="506.8,242.5 510.3,256.8 496.3,260.1 493,245.8 			"/>
			<path class="st0" d="M490.7,73.2c1.1,0,3.4,0.2,3.4,3.2c0,2.9-1.9,3.3-3.4,3.3h-15.8c-3.9,0-5.7-1.5-5.7-5.6V53.4
				c0-0.5,0-1,0.1-1.5c0.5-3.1,2.4-4.1,5.6-4.1h14.9c0.8,0,3.4,0,3.4,3.2c0,2.4-1.2,3.3-3.4,3.3h-11.9c-0.7,0-1.1,0.4-1.1,1.1v5
				h11.8c1.4,0,3.3,0.4,3.3,3c0,1.5-0.4,3.2-3.3,3.2h-11.8v5.6c0,0.7,0.4,1.1,1.1,1.1H490.7z"/>
			<polygon class="st0" points="489.2,244.4 492.6,258.8 478.9,262 475.3,247.7 			"/>
			<path class="st0" d="M469.1,183.7c0,5.9-1.2,11.2-3.7,15.9c-2.8,5.3-7.1,9.6-12.8,12.9l-19.3,11.3l-9.8-16.4l18.3-10.6
				c2.6-1.5,4.6-3.5,6-6c1.4-2.5,2.1-5.2,2.1-8.1c0-2.7-0.7-5.4-2.2-8c-1.5-2.6-3.5-4.5-6-5.9s-5.2-2.1-8.1-2.1
				c-2.8,0-5.5,0.7-8,2.2l-32.6,18.8l-9-16.9l32-18.5c2.7-1.6,5.6-2.8,8.6-3.6c3-0.8,6-1.2,9.2-1.2c6.3,0,12.2,1.5,17.6,4.6
				c5.4,3.1,9.8,7.4,13.1,13C467.5,170.7,469.1,176.9,469.1,183.7z"/>
			<path class="st0" d="M463.2,51c0,0.3,0,0.6-0.1,0.8c-0.3,1.7-1.5,2.4-3.3,2.4h-11.4c-0.7,0-1.1,0.4-1.1,1.1v5.7h10.5
				c1.5,0,3.3,0.4,3.3,3c0,1.5-0.4,3.1-3.3,3.1h-10.5V77c0,1.3-0.2,3.5-3.7,3.5c-2.3,0-3.8-0.7-3.8-3.5V53.4c0-4.3,2-5.6,5.6-5.6
				h14.4C460.7,47.8,463.2,47.8,463.2,51z"/>
			<polygon class="st0" points="453.1,253.2 453.1,273.5 433.4,273.5 433.4,284.5 451.3,284.5 451.3,303.9 433.4,303.9 433.4,314.3 
				451.3,314.3 451.3,333.9 433.4,333.9 433.4,350.2 411,350.2 411,301.1 411,273.5 407.2,273.5 402.2,299.6 380.3,295.6 
				390.2,242.7 412.2,246.7 411,253.2 			"/>
			<path class="st0" d="M434.2,75.6c0.1,0.2,0.4,0.9,0.4,1.6c0,2.5-3.5,3.3-4.8,3.3c-1.4,0-2.2-1.2-2.6-2.4l-1.6-4.5h-13l-1.6,4.5
				c-0.4,1.2-1.2,2.4-2.7,2.4c-1.7,0-4.7-1.2-4.7-3.1c0-0.2,0-0.8,0.3-1.7l0.2-0.5l8.4-23.3c1.1-3.1,2.9-4.8,6.5-4.8
				c2.5,0,5.1,0.6,6.6,4.8L434.2,75.6z M423.3,67.3l-3.3-9c-0.4-1.1-0.7-1.1-0.9-1.1c-0.4,0-0.7,0.3-1,1.1l-3.2,9H423.3z"/>
			<path class="st0" d="M399.6,70.1c0,0.9-0.2,2-0.6,3.1c-1.2,3.4-4.5,7.2-12.2,7.2c-11.4,0-14.1-6.7-14.1-9c0-3.1,3.4-3.1,3.9-3.1
				c2.1,0,3.3,0.8,3.5,1.6c0.7,2.1,0.8,2.7,2.6,3.4c1.3,0.4,2.7,0.6,3.9,0.6c1.4,0,5.3,0,5.3-3.1c0-1.3-0.6-2-6.8-4
				c-6.6-2.2-11.8-3.8-11.8-10.2c0-2.9,1.3-9.7,13.1-9.7c8.3,0,12.4,4.9,12.4,8.5c0,2.5-2.6,2.7-3.7,2.7c-2.7,0-3.2-1-3.6-1.8
				c-1-2.1-1.5-3-5.4-3c-1.1,0-5.1,0-5.1,2.5c0,2,1,2.3,8,4.7C396.3,63.2,399.6,65.2,399.6,70.1z"/>
			<polygon class="st0" points="383.1,248.2 371.1,298.1 377.9,298.1 377.9,350.2 354.7,350.2 354.7,314.3 354.7,307 345.4,304.5 
				359.7,243.9 			"/>
			<path class="st0" d="M364.2,201.8v18.4h-21.4c-6.9,0-12.9-2.4-17.7-7.3c-4.9-4.8-7.3-10.7-7.3-17.6s2.4-12.7,7.3-17.5
				c4.9-4.9,10.8-7.3,17.7-7.3h21h0.4v11.8v6.7h-21.4c-1.8,0-3.3,0.6-4.6,1.9c-1.3,1.2-1.9,2.8-1.9,4.5c0,1.8,0.7,3.3,1.9,4.5
				c1.3,1.3,2.8,1.9,4.6,1.9H364.2z"/>
			<polygon class="st0" points="363.8,145.5 363.8,164.7 314,164.7 314,222.9 294.2,222.9 294.2,164.7 288.7,164.7 288.7,145.5 
				294.2,145.5 294.2,141.2 314,141.2 314,145.5 			"/>
			<path class="st0" d="M354.4,75.6c0.1,0.2,0.3,0.9,0.3,1.6c0,2.5-3.5,3.3-4.7,3.3c-1.5,0-2.2-1.2-2.7-2.4l-1.6-4.5h-13l-1.6,4.5
				c-0.4,1.2-1.2,2.4-2.7,2.4c-1.7,0-4.6-1.2-4.6-3.1c0-0.2-0.1-0.8,0.3-1.7l8.6-23.8c1.1-3.1,2.9-4.8,6.5-4.8
				c2.5,0,5.1,0.6,6.6,4.8L354.4,75.6z M343.4,67.3l-3.3-9c-0.4-1.1-0.7-1.1-0.9-1.1c-0.3,0-0.7,0.3-1,1.1l-3.2,9H343.4z"/>
			<polygon class="st0" points="296.5,294.7 327,335.5 308,349.9 278,307.8 			"/>
			<polygon class="st0" points="326.9,263.9 326.9,287.9 296.5,287.9 282.1,287.9 271.5,303.5 240.2,349.9 220.1,336.2 252.3,287.9 
				220.1,287.9 220.1,263.9 260.8,263.9 260.8,244.5 286.2,244.5 286.2,263.9 			"/>
			<path class="st0" d="M303,73.2c1.1,0,3.4,0.2,3.4,3.2c0,2.9-1.9,3.3-3.4,3.3h-15.9c-3.9,0-5.6-1.5-5.6-5.6V53.4
				c0-4.3,2-5.6,5.6-5.6h14.9c0.8,0,3.4,0,3.4,3.2c0,2.4-1.2,3.3-3.4,3.3h-11.9c-0.7,0-1.1,0.4-1.1,1.1v5h11.8c1.4,0,3.3,0.4,3.3,3
				c0,1.5-0.4,3.2-3.3,3.2H289v5.6c0,0.7,0.4,1.1,1.1,1.1H303z"/>
			<path class="st0" d="M276.2,50.1c0,0.4-0.1,1.2-0.3,1.9L268,76.2c-0.3,1-1.4,4.3-6.1,4.3c-1.4,0-4.9-0.1-6.3-4.3L247.7,52
				c-0.2-0.5-0.3-1.3-0.3-1.8c0-1.6,1.9-3.2,4.2-3.2c2.3,0,3.1,2,3.2,2.4l6.1,18.6c0.3,0.8,0.5,1.2,0.9,1.2c0.4,0,0.7-0.3,1-1.2
				l6.1-18.6c0.3-1.1,1.2-2.4,3.3-2.4C274.3,47,276.2,48.6,276.2,50.1z"/>
			<polygon class="st0" points="271.6,157 260.1,169 237.8,148.9 249.3,136.9 			"/>
			<path class="st0" d="M262.4,186.9v35.8h-1.6h-35.9v-19.1h18.1v-16.7c0-3.1-1-5.7-2.9-7.8c-1.9-2.2-4.7-3.2-8.1-3.2H216v46.8
				h-19.3v-46.8h-10.9v-19.2h10.9v-15.5H216v15.5h15.9c8.8,0,16,3,21.8,8.9C259.5,171.5,262.4,178.6,262.4,186.9z"/>
			<path class="st0" d="M244.4,75.6c0.1,0.2,0.3,0.9,0.3,1.6c0,2.5-3.5,3.3-4.7,3.3c-1.5,0-2.2-1.2-2.7-2.4l-1.6-4.5h-13l-1.6,4.5
				c-0.4,1.2-1.2,2.4-2.7,2.4c-1.7,0-4.6-1.2-4.6-3.1c0-0.1,0-0.2,0-0.3c0-0.3,0-0.8,0.3-1.5l8.6-23.8c1.1-3.1,2.9-4.8,6.5-4.8
				c2.5,0,5.1,0.6,6.6,4.8L244.4,75.6z M233.4,67.3l-3.3-9c-0.4-1.1-0.7-1.1-0.9-1.1c-0.4,0-0.7,0.3-1,1.1l-3.2,9H233.4z"/>
			<path class="st0" d="M208.5,50.4V77c0,1.3-0.3,3.5-3.7,3.5c-2.3,0-3.8-0.8-3.8-3.5V65.9h-11.4V77c0,1.3-0.3,3.5-3.7,3.5
				c-2.3,0-3.8-0.7-3.8-3.5V50.4c0-1.2,0.2-3.4,3.7-3.4c2.3,0,3.9,0.7,3.9,3.4v9.1h11.4v-9.1c0-1.6,0.5-3.4,3.7-3.4
				C207,47,208.5,47.8,208.5,50.4z"/>
			<path class="st0" d="M161.2,48.9c0-2.7,1.1-5.2,2.9-6.9C162.3,43.7,161.2,46.2,161.2,48.9l0,30.5c0,2.7,1.1,5.1,2.9,6.9
				c-1.8-1.7-2.9-4.2-2.9-6.9V48.9z"/>
		</g>
		<g>
		</g>
	</g>
</g>
</svg>
