<?xml version="1.0" encoding="UTF-8"?>
<svg id="_レイヤー_1" data-name="レイヤー_1" xmlns="http://www.w3.org/2000/svg" version="1.1" viewBox="0 0 900 900">
  <!-- Generator: Adobe Illustrator 29.6.1, SVG Export Plug-In . SVG Version: 2.1.1 Build 9)  -->
  <defs>
    <style>
      .st0 {
        fill: #fff;
      }
    </style>
  </defs>
  <path d="M762.2,65.3H137.8c-40,0-72.5,32.5-72.5,72.5v624.4c0,40,32.5,72.5,72.5,72.5h624.4c40,0,72.5-32.5,72.5-72.5V137.8c0-40-32.5-72.5-72.5-72.5Z"/>
  <path class="st0" d="M489.7,417.3l155.4-180.6h-36.8l-134.9,156.8-107.8-156.8h-124.3l163,237.2-163,189.4h36.8l142.5-165.6,113.8,165.6h124.3l-169-246h0ZM439.3,476l-16.5-23.6-131.4-187.9h56.6l106,151.7,16.5,23.6,137.8,197.1h-56.6l-112.5-160.9h0ZM762.2,50.3H137.8c-48.2,0-87.5,39.3-87.5,87.5v624.4c0,48.2,39.3,87.5,87.5,87.5h624.4c48.2,0,87.5-39.3,87.5-87.5V137.8c0-48.2-39.3-87.5-87.5-87.5ZM834.7,762.2c0,40-32.5,72.5-72.5,72.5H137.8c-40,0-72.5-32.5-72.5-72.5V137.8c0-40,32.5-72.5,72.5-72.5h624.4c40,0,72.5,32.5,72.5,72.5v624.4Z"/>
</svg>